<!-- Generated by IcoMoon.io -->
<svg version="1.1" xmlns="http://www.w3.org/2000/svg" width="32" height="32" viewBox="0 0 32 32">
<title>Course-Totall-Enrolled</title>
<path d="M11.933 27.333h-6.933v-22h1.8c0.133 0.733 0.467 1.467 0.933 2v4.467c0 0.267 0.133 0.533 0.333 0.667s0.467 0.133 0.733 0.067l1.8-0.867 1.933 0.867c0.267 0.133 0.533 0.067 0.733-0.067s0.333-0.4 0.333-0.667v-2c0-0.4-0.333-0.733-0.733-0.733s-0.733 0.333-0.733 0.733v0.8l-1.2-0.533c-0.2-0.067-0.467-0.067-0.667 0l-1.067 0.467v-2.2c0.467 0.2 0.933 0.267 1.4 0.267 1.933 0 3.6-1.4 3.933-3.333h8.467v10.933c0 0.4 0.333 0.733 0.733 0.733s0.733-0.333 0.733-0.733v-11.667c0-0.4-0.333-0.733-0.733-0.733h-9.133c-0.4-1.8-2-3.133-3.867-3.133s-3.467 1.333-3.867 3.133h-2.667c-0.4 0-0.733 0.333-0.733 0.733v22.8h-0.533c-0.667 0-1.267-0.533-1.267-1.267v-9h0.133c0.4 0 0.733-0.333 0.733-0.733s-0.333-0.733-0.733-0.733h-0.867c-0.4 0-0.733 0.333-0.733 0.733v9.8c0 1.533 1.267 2.8 2.8 2.8h9.067c0.4 0 0.733-0.333 0.733-0.733-0.067-0.533-0.4-0.867-0.867-0.867zM8.267 4.533c0 0 0 0 0 0 0.067-1.333 1.133-2.4 2.467-2.4s2.4 1.067 2.467 2.333c0 0 0 0 0 0s0 0.067 0 0.067c0 1.333-1.067 2.467-2.467 2.467-1.333 0.067-2.467-1-2.467-2.467 0 0.067 0 0.067 0 0zM18.733 14.867c0-0.4-0.333-0.733-0.733-0.733h-7.867c-0.4 0-0.733 0.333-0.733 0.733s0.333 0.733 0.733 0.733h7.867c0.4 0 0.733-0.333 0.733-0.733zM10.133 17c-0.4 0-0.733 0.333-0.733 0.733s0.333 0.733 0.733 0.733h2.133c0.4 0 0.733-0.333 0.733-0.733s-0.333-0.733-0.733-0.733h-2.133zM17.933 9.133h2.333c0.4 0 0.733-0.333 0.733-0.733s-0.333-0.733-0.733-0.733h-2.333c-0.4 0-0.733 0.333-0.733 0.733-0.067 0.4 0.333 0.733 0.733 0.733zM31.8 26.133l-0.4-0.933v-3.4c0 0 0 0 0 0 0-0.267-0.133-0.533-0.4-0.667-0.067-0.067-0.133-0.067-0.2-0.067l-9.533-2.867c-0.133-0.067-0.267-0.067-0.467 0l-9.6 2.867c-0.333 0.067-0.533 0.4-0.533 0.733s0.2 0.667 0.533 0.733l3.333 1v6.467c0 0.333 0.267 0.667 0.6 0.733 1.867 0.4 3.867 0.6 5.867 0.6s3.933-0.2 5.867-0.6c0.333-0.067 0.6-0.4 0.6-0.733v-4.267c0-0.4-0.333-0.733-0.733-0.733s-0.733 0.333-0.733 0.733v3.667c-1.6 0.267-3.267 0.4-4.933 0.4s-3.333-0.133-4.933-0.4v-5.467l4.733 1.4c0.133 0.067 0.267 0.067 0.467 0l8.6-2.6v2.4l-0.4 0.933c-0.133 0.4 0 0.867 0.4 1 0.267 0.133 0.533 0.067 0.733-0.067 0.2 0.133 0.467 0.2 0.733 0.067 0.333-0.133 0.533-0.6 0.4-0.933zM21.067 23.8l-5.467-1.6c0 0 0 0-0.067 0l-1.4-0.4 6.933-2.067 6.933 2.067-6.933 2zM21.067 11.133c0-0.4-0.333-0.733-0.733-0.733h-2.333c-0.4 0-0.733 0.333-0.733 0.733s0.333 0.733 0.733 0.733h2.333c0.4 0 0.733-0.333 0.733-0.733z"></path>
</svg>
