<?xml version="1.0" encoding="utf-8"?>
<!-- Generator: Adobe Illustrator 23.0.4, SVG Export Plug-In . SVG Version: 6.00 Build 0)  -->
<svg version="1.1" id="Layer_1" xmlns="http://www.w3.org/2000/svg" xmlns:xlink="http://www.w3.org/1999/xlink" x="0px" y="0px"
	 viewBox="0 0 32 32" style="enable-background:new 0 0 32 32;" xml:space="preserve">
<title>Course-Totall-Enrolled</title>
<path d="M20.9,31.3c-2,0-4-0.2-5.8-0.6c-0.4-0.1-0.8-0.5-0.8-1v-6.2l-3.1-0.9c-0.4-0.1-0.7-0.5-0.7-1c0-0.5,0.3-0.9,0.7-1l9.4-2.8
	c0.1,0,0.2-0.1,0.3-0.1c0.1,0,0.2,0,0.3,0.1l9.3,2.8c0,0,0,0,0,0c0,0,0.2,0,0.3,0.1c0.3,0.1,0.5,0.5,0.5,0.8V25l0.4,0.9
	c0.1,0.2,0.1,0.5,0,0.7c-0.1,0.2-0.3,0.4-0.5,0.5c-0.1,0.1-0.2,0.1-0.4,0.1c-0.1,0-0.3,0-0.4-0.1c-0.1,0.1-0.3,0.1-0.4,0.1
	c-0.1,0-0.3,0-0.4-0.1c-0.5-0.2-0.7-0.8-0.5-1.3l0.4-0.9v-2l-8.1,2.5c-0.1,0-0.2,0.1-0.3,0.1c-0.1,0-0.2,0-0.3-0.1l-4.3-1.3v4.8
	c1.5,0.2,3,0.4,4.6,0.4c1.6,0,3.1-0.1,4.6-0.4v-3.4c0-0.5,0.4-1,1-1c0.5,0,1,0.4,1,1v4.2c0,0.5-0.3,0.9-0.8,1
	C24.8,31.1,22.9,31.3,20.9,31.3z M21,23.4l5.9-1.7L21,19.9L15,21.7L21,23.4z M3.2,28.9c-1.6,0-3-1.3-3-3v-9.6c0-0.5,0.4-1,1-1h0.8
	c0.5,0,1,0.4,1,1c0,0.5-0.4,0.9-0.8,1v8.6c0,0.6,0.4,1,1,1h0.3V4.8c0-0.5,0.4-1,1-1h2.4C7.3,2,9,0.7,10.8,0.7s3.5,1.3,4,3.1h8.8
	c0.5,0,1,0.4,1,1v11.4c0,0.5-0.4,1-1,1c-0.5,0-1-0.4-1-1V5.7h-7.9C14.3,7.6,12.7,9,10.7,9c-0.4,0-0.8-0.1-1.1-0.2v1.4l0.7-0.3
	c0.1,0,0.3-0.1,0.4-0.1c0.1,0,0.3,0,0.4,0.1l0.9,0.4V9.9c0-0.5,0.4-1,1-1c0.5,0,1,0.4,1,1v2c0,0.3-0.2,0.7-0.4,0.9
	c-0.2,0.1-0.4,0.2-0.6,0.2c-0.1,0-0.3,0-0.4-0.1L10.7,12L9,12.8c-0.2,0.1-0.3,0.1-0.4,0.1c-0.2,0-0.4-0.1-0.5-0.1
	c-0.3-0.2-0.4-0.5-0.4-0.9V7.6C7.2,7.1,6.9,6.5,6.8,5.8H5.5v21.1l6.6,0c0.6,0,1,0.4,1.1,1.1c0,0.6-0.4,1-1,1H3.2z M8.7,4.8
	c0,0.6,0.2,1.2,0.6,1.6c0.4,0.4,0.9,0.6,1.4,0.6l0.1,0C12,6.9,13,6,13,4.8c-0.1-1.2-1-2.1-2.2-2.1C9.7,2.6,8.7,3.6,8.7,4.8z
	 M10.2,18.7c-0.5,0-1-0.4-1-1c0-0.5,0.4-1,1-1h2.1c0.5,0,1,0.4,1,1c0,0.5-0.4,1-1,1H10.2z M10.2,15.9c-0.5,0-1-0.4-1-1
	c0-0.5,0.4-1,1-1H18c0.5,0,1,0.4,1,1c0,0.5-0.4,1-1,1H10.2z M18,12.2c-0.5,0-1-0.4-1-1c0-0.5,0.4-1,1-1h2.3c0.5,0,1,0.4,1,1
	c0,0.5-0.4,1-1,1H18z M17.9,9.5c-0.3,0-0.6-0.1-0.8-0.4C17,9,16.9,8.7,16.9,8.5c0-0.5,0.4-0.9,1-0.9h2.3c0.5,0,1,0.4,1,1
	c0,0.5-0.4,1-1,1H17.9z"/>
</svg>
