<?xml version="1.0" encoding="utf-8"?>
<!-- Generator: Adobe Illustrator 23.0.4, SVG Export Plug-In . SVG Version: 6.00 Build 0)  -->
<svg version="1.1" id="Layer_1" xmlns="http://www.w3.org/2000/svg" xmlns:xlink="http://www.w3.org/1999/xlink" x="0px" y="0px"
	 viewBox="0 0 32 32" style="enable-background:new 0 0 32 32;" xml:space="preserve">
<title>Course-level</title>
<path d="M4.2,31.9c-2.3,0-4.2-1.9-4.2-4.2V4.2C0.1,1.9,1.9,0,4.2,0c0,0,23.6,0,23.6,0c1.1,0,2.2,0.4,3,1.3c0.8,0.8,1.2,1.9,1.2,3
	v23.5c0,2.3-1.9,4.2-4.2,4.2H4.2z M4.2,2.1C3,2.1,2.1,3,2.1,4.2v23.6c0,1.2,1,2.1,2.1,2.1h23.6c1.2,0,2.1-1,2.1-2.1V4.2
	c0-1.2-1-2.1-2.1-2.1H4.2z M13.6,25.7c-0.6,0-1-0.4-1-1v-2.1h-6c-0.6,0-1-0.4-1-1s0.4-1,1-1h6v-2.1c0-0.6,0.4-1,1-1s1,0.4,1,1v2.1
	h10.8c0.5,0,1,0.5,1,1c0,0.6-0.4,1-1,1H14.7v2.1C14.7,25.3,14.2,25.7,13.6,25.7z M21.5,14.7c-0.6,0-1-0.4-1-1v-2.1H6.5
	c-0.6,0-1-0.4-1-1s0.4-1,1-1h13.9V7.3c0-0.6,0.4-1,1-1s1,0.4,1,1v2.1h2.9c0.5,0,1,0.4,1,1c0,0.6-0.4,1-1,1h-2.9v2.1
	C22.5,14.3,22.1,14.7,21.5,14.7z"/>
</svg>
