<svg version="1.0" id="Layer_1" xmlns="http://www.w3.org/2000/svg" x="0" y="0" width="32" height="32" style="enable-background:new 0 0 32 32" xml:space="preserve"><style>.st0{fill-rule:evenodd;clip-rule:evenodd}</style><path d="M6 31c-2.3 0-4-1.8-4-3.9V4.9C2 2.7 3.9 1 6 1h19.9c1.1 0 2.1.4 2.9 1.1.8.8 1.2 1.7 1.2 2.9v22.1c0 2.2-1.9 3.9-4 3.9H6zM6 2.9c-1.2 0-2 .9-2 2v22.2c0 1.1 1 2 2.1 2H26c1.2 0 2.1-.9 2.1-2v-.2H28v-22c0-1.1-1-2-2.1-2H6z"/><path class="st0" d="M8.1 14.1c-.1.1-.1.2-.1.4 0 .4.3.5.7.5h14.6c.3 0 .5-.1.6-.3.1-.2 0-.5-.2-.7l-3.2-3.5c-.4-.5-.7-.6-1.2 0l-2.9 2.6c-.3.3-.7.2-.9-.1l-3-5.5c-.4-.7-.9-.7-1.2 0l-3.2 6.6zM22.7 6.3c0 .7-.6 1.3-1.3 1.3-.7 0-1.3-.6-1.3-1.3S20.6 5 21.3 5c.8 0 1.4.6 1.4 1.3z"/><path d="M7.6 19.4c0 .6.4 1 1 1H23c.6 0 1-.4 1-1s-.5-1-1-1H8.6c-.6 0-1 .4-1 1zM7.6 24.1c0 .6.4 1 1 1H16c.6 0 1-.4 1-1s-.5-1-1-1H8.6c-.6 0-1 .4-1 1z"/></svg>