<!-- Generated by IcoMoon.io -->
<svg version="1.1" xmlns="http://www.w3.org/2000/svg" width="32" height="32" viewBox="0 0 32 32">
<title>Course-Instructors</title>
<path d="M23.333 20.2l-4 4h-0.133c-0.467-0.067-0.933 0.067-1.333 0.4l-0.333 0.333-0.067-0.067c-0.133-0.067-0.2-0.133-0.333-0.133s-0.333 0.067-0.467 0.2l-0.667 0.667v-0.467c-0.067-1.533-1.067-2.867-2.467-3.4l-2.2-0.8 0.133-0.133c0.6-0.6 0.933-1.4 0.933-2.333v-2.467l0.133-0.067c0.667-0.533 1.067-1.333 1.067-2.267v-3.133c0-0.2-0.133-0.4-0.333-0.467-0.2-0.133-0.467-0.067-0.667 0.067l-0.533 0.467-0.133 0.067c-0.467 0.333-1 0.533-1.533 0.533h-4.8c-0.933 0-1.667 0.8-1.667 1.8v1.733c0 0.467 0.2 0.867 0.467 1.133v2.733c0.067 0.867 0.467 1.667 1.067 2.267l-2.667 0.867-0.133 0.067c-1.467 0.533-2.467 2-2.467 3.533v5.933c0.067 0.333 0.333 0.533 0.6 0.533h14.733c0.2 0 0.333-0.133 0.467-0.267l3.733-3.733c0.2-0.267 0.2-0.533 0-0.8v0l0.4-0.4c0.4-0.467 0.467-1.067 0.2-1.6l4-4c0.2-0.267 0.2-0.6-0.067-0.8-0.267-0.267-0.667-0.267-0.933 0zM5.133 14.533v-1.667c0.067-0.267 0.267-0.467 0.533-0.467h4.867c0.667 0 1.267-0.2 1.8-0.533v1.867c-0.067 0.867-0.8 1.6-1.667 1.6h-4.8c-0.4-0.067-0.733-0.4-0.733-0.8zM9.133 20.533h-1.533c-1.067-0.067-2-1-2-2.067v-1.933h5.333c0.133 0 0.2 0 0.333-0.067v2.067c-0.067 1.133-1 2-2.133 2zM10.4 21.8l-1.867 5.4-1.867-5.4 0.4-0.133 0.2 0.067c0.2 0 0.4 0.067 0.533 0.067h1.6c0.2 0 0.4-0.067 0.6-0.067l0.4 0.067zM13.4 28.2c-0.133-0.2-0.333-0.333-0.533-0.333-0.333 0-0.6 0.267-0.6 0.6v2.067h-7.467v-2.133c-0.067-0.333-0.333-0.533-0.6-0.533-0.333 0-0.6 0.267-0.6 0.6v2.067h-2.2v-5.333c0.067-1.067 0.733-2 1.733-2.267l2.267-0.733 2.533 7.133v0.067c0.133 0.2 0.333 0.333 0.533 0.333 0.267 0 0.533-0.2 0.6-0.4l2.467-7.067 1.6 0.6 0.133 0.067c0.933 0.4 1.533 1.333 1.533 2.333v1.6l-1.4 1.4v-0.067zM15.2 30.6h-1.733v-0.6l3.733-3.733 1.2 1.2-3.2 3.133zM19.133 25.8l-0.333 0.333-0.333-0.333 0.4-0.4c0.067-0.067 0.2-0.067 0.267 0 0.067 0.2 0.067 0.333 0 0.4zM21.467 17.467c0.067 0.333 0.267 0.533 0.6 0.533s0.6-0.267 0.6-0.6v-1.133h1c0.333-0.067 0.533-0.267 0.533-0.6s-0.267-0.6-0.6-0.6h-0.933v-1.2c-0.067-0.333-0.333-0.533-0.6-0.533-0.333 0-0.6 0.267-0.6 0.6v1.133h-1c-0.333 0.067-0.533 0.267-0.533 0.6s0.267 0.6 0.6 0.6h0.933v1.2zM16.267 17.6h-0.067c-0.333 0.067-0.533 0.333-0.533 0.6 0 0.333 0.267 0.6 0.6 0.6h2.133c0.333-0.067 0.533-0.333 0.533-0.6 0-0.333-0.267-0.6-0.6-0.6h-0.4v-4.6c0-0.267-0.2-0.467-0.467-0.533s-0.533 0.067-0.667 0.267l-1.267 2.2-0.067 0.067c-0.133 0.267 0 0.6 0.267 0.8s0.667 0.067 0.867-0.2l0.067-0.267v2.267h-0.4zM22.333 24.933v0h-0.133c-0.333 0.067-0.533 0.267-0.533 0.6s0.267 0.6 0.6 0.6h0.133c0.333-0.067 0.533-0.333 0.533-0.6 0-0.333-0.267-0.6-0.6-0.6zM31.867 3.467c-0.067-1.867-1.6-3.333-3.467-3.333h-24.933c-1.867 0.067-3.333 1.6-3.333 3.467v15.867c0.067 0.333 0.333 0.6 0.667 0.6 0.4 0 0.667-0.333 0.667-0.667v-15.933c0.067-1.067 1-1.933 2.067-1.933h24.867c1.067 0.067 1.933 1 1.933 2.067v21.067h-5.333c-0.333 0.067-0.6 0.333-0.6 0.667 0 0.4 0.333 0.667 0.667 0.667h6.667v-22.4l0.133-0.133zM27.733 12.933c0-0.267-0.2-0.467-0.467-0.533s-0.533 0.067-0.667 0.267l-1.267 2.2-0.067 0.067c-0.133 0.267 0 0.6 0.267 0.8s0.667 0.067 0.867-0.2l0.133-0.2v2.267h-0.467c-0.333 0.067-0.533 0.333-0.533 0.6 0 0.333 0.267 0.6 0.6 0.6h2.133c0.333-0.067 0.533-0.333 0.533-0.6 0-0.333-0.267-0.6-0.6-0.6h-0.4v-4.533l-0.067-0.133zM28.533 3.867h0.067c0.333-0.067 0.533-0.333 0.533-0.6 0-0.333-0.267-0.6-0.6-0.6v0h-0.067c-0.333 0.067-0.533 0.267-0.533 0.6-0.067 0.333 0.2 0.6 0.6 0.6v0zM26.2 2.667h-22.6c-0.333 0-0.533 0.267-0.533 0.6s0.267 0.6 0.6 0.6h22.6c0.333-0.067 0.533-0.333 0.533-0.6 0-0.333-0.267-0.6-0.6-0.6z"></path>
</svg>
