<?xml version="1.0" encoding="utf-8"?>
<!-- Generator: Adobe Illustrator 23.0.4, SVG Export Plug-In . SVG Version: 6.00 Build 0)  -->
<svg version="1.1" id="Layer_1" xmlns="http://www.w3.org/2000/svg" xmlns:xlink="http://www.w3.org/1999/xlink" x="0px" y="0px"
	 viewBox="0 0 32 32" style="enable-background:new 0 0 32 32;" xml:space="preserve">
<title>Course-Instructors</title>
<path d="M1.1,31.7c-0.4,0-0.7-0.3-0.8-0.7l0-5.9c0-1.6,1.1-3.1,2.6-3.7L3,21.4l2.3-0.7c-0.5-0.6-0.8-1.3-0.9-2.1l0-2.6
	c-0.3-0.3-0.5-0.8-0.5-1.2v-1.7c0-1.1,0.8-2,1.9-2h4.7c0.5,0,0.9-0.2,1.4-0.5l0.2-0.1l0.5-0.4c0.2-0.1,0.4-0.2,0.6-0.2
	c0.1,0,0.3,0,0.4,0.1c0.2,0.1,0.4,0.4,0.4,0.7v3.1c0,1-0.4,1.8-1.1,2.4l0,0v2.3c0,0.9-0.3,1.7-0.8,2.3l1.8,0.7
	c1.5,0.6,2.5,1.9,2.6,3.4l0.2-0.2c0.2-0.2,0.5-0.3,0.6-0.3c0.2,0,0.3,0.1,0.4,0.1l0,0l0.2-0.2c0.4-0.3,0.8-0.5,1.3-0.5
	c0.1,0,0.2,0,0.3,0l3.8-3.8c0.2-0.2,0.4-0.3,0.6-0.3c0.2,0,0.5,0.1,0.6,0.3c0.2,0.1,0.3,0.3,0.3,0.5c0,0.2-0.1,0.4-0.2,0.6l-3.8,3.8
	c0.2,0.6,0.1,1.2-0.3,1.7L20,26.8c0.1,0.3,0.1,0.6-0.1,0.9l-3.7,3.7c-0.1,0.1-0.3,0.3-0.6,0.3H1.1z M15.1,30l2.9-2.8l-0.8-0.8
	l-3.4,3.4V30H15.1z M3.6,30v-1.8c0-0.5,0.4-0.8,0.8-0.8c0.4,0,0.7,0.3,0.8,0.7l0,1.9h6.8v-1.8c0-0.5,0.4-0.8,0.8-0.8
	c0.2,0,0.4,0.1,0.6,0.2l1.1-1.1v-1.5c0-0.9-0.5-1.7-1.4-2.1l-0.1-0.1l-1.3-0.5l-2.3,6.7c-0.1,0.3-0.5,0.6-0.8,0.6
	c-0.3,0-0.5-0.2-0.7-0.4l0-0.1v-0.1l-2.4-6.7l-2,0.6c-0.9,0.2-1.5,1-1.5,2l0,5H3.6z M8.7,26.2l1.5-4.3l-0.1,0c0,0-0.1,0-0.2,0
	c-0.1,0-0.2,0-0.3,0H8c-0.1,0-0.2,0-0.3,0c-0.1,0-0.2,0-0.3,0l-0.2-0.1l-0.1,0L8.7,26.2z M6.1,18.4c0,0.9,0.8,1.7,1.7,1.8h1.5
	c1,0,1.8-0.8,1.8-1.7l0-1.7c0,0-5.1,0-5.1,0V18.4z M5.9,12.7c-0.2,0-0.3,0.1-0.3,0.3l0,1.6c0,0.3,0.2,0.5,0.5,0.5l4.7,0
	c0.7,0,1.3-0.6,1.4-1.3l0-1.4c-0.5,0.2-1,0.4-1.5,0.4H5.9z M22.1,26.2c-0.5,0-0.8-0.4-0.8-0.8c0-0.4,0.3-0.7,0.7-0.8l0.2,0
	c0.5,0,0.8,0.4,0.8,0.8c0,0.4-0.3,0.7-0.7,0.8l0,0H22.1z M24.9,26c-0.4,0-0.9-0.3-0.9-0.9c0-0.4,0.3-0.8,0.8-0.9l5,0V3.9
	c0-0.9-0.7-1.7-1.7-1.8l-24.3,0C2.9,2.1,2.1,2.8,2,3.7l0,15.6c0,0.4-0.3,0.9-0.9,0.9c-0.4,0-0.8-0.3-0.9-0.8l0-15.6
	c0-2,1.5-3.6,3.5-3.6h24.4c2,0,3.6,1.5,3.6,3.5l-0.2,0l0.2,0L31.7,26H24.9z M25.9,19c-0.5,0-0.8-0.4-0.8-0.8c0-0.4,0.3-0.7,0.7-0.8
	l0.3,0V16c-0.1,0.1-0.3,0.1-0.4,0.1c-0.2,0-0.3,0-0.4-0.1c-0.4-0.3-0.5-0.7-0.3-1.1l0,0l0.1-0.1l1.2-2.1c0.2-0.3,0.4-0.4,0.7-0.4
	c0.1,0,0.1,0,0.2,0c0.4,0.1,0.6,0.4,0.6,0.7l0.1,0.1v4.3h0.1c0.5,0,0.8,0.4,0.8,0.8c0,0.4-0.3,0.7-0.7,0.8l0,0H25.9z M16.3,19
	c-0.5,0-0.8-0.4-0.8-0.8c0-0.4,0.3-0.7,0.7-0.8l0,0h0.2v-1.3c-0.1,0.1-0.3,0.1-0.4,0.1c-0.2,0-0.3,0-0.4-0.1
	c-0.4-0.3-0.5-0.7-0.3-1.1l0,0l0.1-0.1l1.2-2.1c0.2-0.3,0.4-0.4,0.7-0.4c0.1,0,0.1,0,0.2,0c0.4,0.1,0.6,0.4,0.6,0.8v4.3h0.1
	c0.5,0,0.8,0.4,0.8,0.8c0,0.4-0.3,0.7-0.7,0.8l0,0H16.3z M21.9,18.2c-0.4,0-0.7-0.3-0.8-0.7l0-1h-0.7c-0.5,0-0.8-0.4-0.8-0.8
	c0-0.4,0.3-0.7,0.7-0.8l0.8,0V14c0-0.5,0.4-0.8,0.8-0.8c0.4,0,0.7,0.3,0.8,0.7l0,1h0.7c0.5,0,0.8,0.4,0.8,0.8c0,0.4-0.3,0.7-0.7,0.8
	l-0.8,0v0.9C22.8,17.8,22.4,18.2,21.9,18.2z M28.3,4.4c-0.3,0-0.5-0.1-0.7-0.3c-0.1-0.2-0.2-0.4-0.1-0.6c0-0.4,0.3-0.7,0.7-0.8l0,0
	h0.1c0.5,0,0.8,0.4,0.8,0.8c0,0.4-0.3,0.7-0.7,0.8L28.3,4.4L28.3,4.4z M3.9,4.4C3.5,4.4,3.1,4,3.1,3.5c0-0.5,0.3-0.8,0.8-0.8H26
	c0.5,0,0.8,0.4,0.8,0.8c0,0.4-0.3,0.7-0.7,0.8l0,0H3.9z"/>
</svg>
