<!-- Generated by IcoMoon.io -->
<svg version="1.1" xmlns="http://www.w3.org/2000/svg" width="32" height="32" viewBox="0 0 32 32">
<title>Course-Author</title>
<path d="M27.333 4.667c-3-3-7.067-4.667-11.333-4.667s-8.267 1.667-11.333 4.667-4.667 7.067-4.667 11.333c0 4.267 1.667 8.267 4.667 11.333 3 3 7.067 4.667 11.333 4.667s8.267-1.667 11.333-4.667c3-3 4.667-7.067 4.667-11.333s-1.667-8.267-4.667-11.333zM16 30.333c-3.8 0-7.4-1.467-10.133-4.2s-4.2-6.333-4.2-10.133c0-3.8 1.467-7.4 4.2-10.133s6.333-4.2 10.133-4.2c3.8 0 7.4 1.467 10.133 4.2s4.2 6.333 4.2 10.133c0 3.8-1.467 7.4-4.2 10.133s-6.333 4.2-10.133 4.2zM16 15.333c-4.933 0-9 4-9 9 0 0.4 0.333 0.667 0.667 0.667 0.4 0 0.667-0.333 0.667-0.667 0.067-4.267 3.467-7.667 7.667-7.667s7.6 3.4 7.6 7.6c0 0.4 0.333 0.667 0.667 0.667s0.667-0.333 0.667-0.667c0.067-4.933-4-8.933-8.933-8.933zM16 13.933c2.667 0 4.8-2.133 4.8-4.8s-2.133-4.8-4.8-4.8-4.8 2.133-4.8 4.8c0 2.6 2.133 4.8 4.8 4.8zM16 5.667c1.933 0 3.467 1.533 3.467 3.467s-1.533 3.467-3.467 3.467-3.467-1.533-3.467-3.467c0-1.933 1.533-3.467 3.467-3.467z"></path>
</svg>
