<?xml version="1.0" encoding="utf-8"?>
<!-- Generator: Adobe Illustrator 23.0.4, SVG Export Plug-In . SVG Version: 6.00 Build 0)  -->
<svg version="1.1" id="Layer_1" xmlns="http://www.w3.org/2000/svg" xmlns:xlink="http://www.w3.org/1999/xlink" x="0px" y="0px"
	 viewBox="0 0 32 32" style="enable-background:new 0 0 32 32;" xml:space="preserve">
<title>Course-Author</title>
<path d="M16,31.8c-4.2,0-8.2-1.6-11.2-4.6c-3-3-4.6-7-4.6-11.2c0-4.3,1.6-8.3,4.6-11.2c3-3,7-4.6,11.2-4.6c4.2,0,8.2,1.6,11.2,4.6
	c3,3,4.6,7,4.6,11.2c0,4.2-1.6,8.2-4.6,11.2C24.1,30.1,20.2,31.8,16,31.8z M16,2.3c-3.7,0-7.1,1.4-9.7,4c-2.6,2.6-4,6-4,9.7
	s1.4,7.1,4,9.7c2.6,2.6,6,4,9.7,4c3.7,0,7.1-1.4,9.7-4s4-6,4-9.7s-1.4-7.1-4-9.7C23.1,3.7,19.7,2.3,16,2.3z M7.9,25
	C7.5,25,7,24.6,7,24.1c0-5,4-9,9-9c2.4,0,4.7,0.9,6.4,2.7c1.7,1.7,2.6,3.9,2.5,6.2c0,0.5-0.4,0.9-0.9,0.9c-0.4,0-0.9-0.3-0.9-0.9
	c0-3.9-3.2-7.1-7.1-7.1c-4,0-7.1,3.2-7.2,7.2C8.8,24.5,8.5,25,7.9,25z M16,14.2c-2.7,0-4.9-2.2-4.9-4.9s2.2-4.9,4.9-4.9
	c2.7,0,4.9,2.2,4.9,4.9S18.7,14.2,16,14.2z M16,6.2c-1.8,0-3.1,1.4-3.1,3.1c0,1.8,1.4,3.1,3.1,3.1s3.1-1.4,3.1-3.1
	C19.1,7.6,17.8,6.2,16,6.2z"/>
</svg>
