<svg version="1.0" xmlns="http://www.w3.org/2000/svg" width="32" height="32" style="enable-background:new 0 0 32 32" xml:space="preserve"><path d="M5.9 2.2c1.1-.5 2.3-.7 3.4-.7 1.2 0 2.3.2 3.4.7 1.1.5 2 1.1 2.9 2l.4.4.4-.4c.8-.8 1.8-1.5 2.9-2 1.1-.5 2.2-.7 3.4-.7 1.2 0 2.3.2 3.4.7 1.1.5 2 1.1 2.9 2 3.5 3.6 3.6 9.6-.6 14l-11.6 12c-.2.2-.4.3-.7.3-.3 0-.5-.1-.7-.3l-11.6-12c-4.2-4.4-4.1-10.4-.6-14 .7-.9 1.7-1.5 2.7-2zm3.4 1.3c-.9 0-1.7.2-2.6.5-.8.4-1.5.9-2.2 1.6-2.7 2.8-2.9 7.5.6 11.2L16 28.1l10.9-11.2c3.5-3.7 3.3-8.5.6-11.2-.6-.7-1.4-1.2-2.2-1.5-.8-.4-1.7-.5-2.6-.5-.9 0-1.8.2-2.6.5-.8.4-1.6.9-2.2 1.5l-1.1 1.2c-.2.2-.5.3-.7.3s-.5-.1-.7-.3l-1.1-1.2c-.6-.7-1.4-1.2-2.2-1.5-1-.5-1.9-.7-2.8-.7z" style="fill-rule:evenodd;clip-rule:evenodd"/></svg>