<!-- Generated by IcoMoon.io -->
<svg version="1.1" xmlns="http://www.w3.org/2000/svg" width="32" height="32" viewBox="0 0 32 32">
<title>Course-Review</title>
<path d="M13.533 4.867l-0.333 0.933c-0.2 0.533 0 1.133 0.467 1.467 0.2 0.133 0.467 0.267 0.733 0.267s0.533-0.067 0.733-0.267l0.8-0.6 0.8 0.6c0.467 0.333 1.067 0.333 1.533 0s0.667-0.933 0.467-1.467l-0.333-0.933 0.933-0.533c0.467-0.333 0.667-0.933 0.467-1.467s-0.667-0.867-1.2-0.867h-1l-0.333-0.933c-0.133-0.533-0.667-0.867-1.2-0.867 0 0 0 0 0 0-0.6 0-1.067 0.333-1.2 0.867l-0.333 0.933h-1c-0.533 0-1.067 0.333-1.267 0.867s0 1.133 0.467 1.467l0.8 0.533zM13.467 2.933h1.733l0.533-1.6c0.067-0.133 0.2-0.133 0.267-0.133 0 0 0 0 0 0 0.067 0 0.267 0 0.267 0.133l0.533 1.667h1.733c0.133 0 0.267 0.067 0.267 0.2 0.067 0.133 0 0.267-0.133 0.333l-1.333 1 0.533 1.667c0.067 0.133 0 0.267-0.133 0.333-0.067 0.067-0.267 0.067-0.333 0l-1.4-1.067-1.4 1c-0.133 0.067-0.267 0.067-0.333 0-0.133-0.067-0.133-0.2-0.133-0.333l0.533-1.6-1.4-1c-0.133-0.067-0.133-0.2-0.133-0.333 0.067-0.133 0.2-0.267 0.333-0.267zM4.067 6.8l0.8 0.6-0.333 0.933c-0.2 0.533 0 1.133 0.467 1.467 0.2 0.133 0.467 0.267 0.733 0.267s0.533-0.067 0.733-0.267l0.8-0.6 0.8 0.6c0.467 0.333 1.067 0.333 1.533 0s0.667-0.933 0.467-1.467l-0.333-0.933 0.8-0.6c0.467-0.333 0.667-0.933 0.467-1.467s-0.667-0.867-1.2-0.867h-1l-0.333-0.933c0-0.533-0.467-0.867-1.067-0.867s-1.067 0.333-1.2 0.867l-0.333 0.933h-1c-0.533 0-1.067 0.333-1.267 0.867-0.2 0.6 0 1.133 0.467 1.467zM4.867 5.467h1.733l0.533-1.667c0.067-0.133 0.2-0.133 0.267-0.133s0.267 0 0.267 0.133l0.533 1.667h1.733c0.133 0 0.267 0.067 0.267 0.2 0.067 0.133 0 0.267-0.133 0.333l-1.4 1 0.533 1.667c0.067 0.133 0 0.267-0.133 0.333-0.067 0.067-0.267 0.067-0.333 0l-1.333-1-1.4 1c-0.133 0.067-0.267 0.067-0.333 0-0.133-0.067-0.133-0.2-0.133-0.333l0.533-1.667-1.4-1c-0.133-0.067-0.133-0.2-0.133-0.333 0.067-0.133 0.2-0.2 0.333-0.2zM21.6 6.8l0.8 0.6-0.333 0.933c-0.2 0.533 0 1.133 0.467 1.467 0.2 0.133 0.467 0.267 0.733 0.267s0.533-0.067 0.733-0.267l0.8-0.6 0.8 0.6c0.467 0.333 1.067 0.333 1.533 0s0.667-0.933 0.467-1.467l-0.333-0.933 0.8-0.6c0.467-0.333 0.667-0.933 0.467-1.467s-0.667-0.867-1.2-0.867h-1l-0.333-0.933c0-0.533-0.467-0.867-1.067-0.867s-1.067 0.333-1.2 0.867l-0.333 0.933h-1c-0.533 0-1.067 0.333-1.2 0.867-0.2 0.6-0.067 1.133 0.4 1.467zM22.067 5.667c0.067-0.133 0.133-0.2 0.267-0.2h1.733l0.6-1.667c0.067-0.133 0.2-0.133 0.267-0.133s0.267 0 0.267 0.133l0.533 1.667h1.733c0.133 0 0.267 0.067 0.267 0.2 0.067 0.133 0 0.267-0.133 0.333l-1.4 1 0.533 1.667c0.067 0.133 0 0.267-0.133 0.333-0.067 0.067-0.267 0.067-0.333 0l-1.333-1-1.4 1c-0.133 0.067-0.267 0.067-0.333 0-0.133-0.067-0.133-0.2-0.133-0.333l0.533-1.667-1.4-1c-0.133-0.067-0.133-0.2-0.133-0.333zM19.2 21.267c1.467-1 2.4-2.667 2.4-4.533 0-3.067-2.533-5.6-5.6-5.6s-5.6 2.533-5.6 5.6c0 1.867 0.933 3.533 2.4 4.533-3.467 1.333-5.6 4.867-5.6 9.8 0 0.467 0.333 0.8 0.8 0.8h16c0.467 0 0.8-0.333 0.8-0.8 0-4.933-2.133-8.467-5.6-9.8zM12 16.667c0-2.2 1.8-4 4-4s4 1.8 4 4c0 2.2-1.8 4-4 4s-4-1.8-4-4zM8.867 30.267c0.2-4 2.2-8 7.133-8s6.933 4 7.133 8h-14.267zM6.667 16.933l0.8-0.6c0.467-0.333 0.667-0.933 0.467-1.467 0 0 0 0 0 0-0.2-0.533-0.667-0.867-1.2-0.867h-1l-0.333-0.933c-0.133-0.533-0.667-0.867-1.2-0.867 0 0 0 0 0 0-0.6 0-1.067 0.333-1.2 0.867l-0.333 0.933h-1c-0.533 0-1.067 0.333-1.2 0.867-0.2 0.533 0 1.133 0.467 1.467l0.8 0.6-0.333 0.933c-0.2 0.533 0 1.133 0.467 1.467 0.2 0.133 0.467 0.267 0.733 0.267s0.533-0.067 0.733-0.267l0.8-0.6 0.867 0.6c0.467 0.333 1.067 0.333 1.533 0s0.667-0.933 0.467-1.467l-0.333-0.933zM6.067 18.2c0.067 0.133 0 0.267-0.133 0.333-0.067 0.067-0.2 0.133-0.333 0l-1.4-1-1.4 1c-0.133 0.067-0.267 0.067-0.333 0-0.133-0.067-0.133-0.2-0.133-0.333l0.533-1.667-1.4-1c-0.133-0.067-0.133-0.2-0.133-0.333 0.067-0.133 0.133-0.2 0.267-0.2h1.733l0.6-1.667c0.067-0.133 0.2-0.133 0.267-0.133 0 0 0 0 0 0 0.067 0 0.267 0 0.267 0.133l0.533 1.667h1.733c0.133 0 0.267 0.067 0.267 0.2v0c0.067 0.133 0 0.267-0.133 0.333l-1.4 1 0.6 1.667zM31.6 14.4v0c-0.2-0.533-0.667-0.867-1.267-0.867h-1l-0.333-0.933c-0.133-0.533-0.667-0.867-1.2-0.867-0.6 0-1.067 0.333-1.2 0.867l-0.333 0.933h-1c-0.533 0-1.067 0.333-1.267 0.867s0 1.133 0.467 1.467l0.8 0.6-0.333 0.933c-0.2 0.533 0 1.133 0.467 1.467 0.2 0.133 0.467 0.267 0.733 0.267s0.533-0.067 0.733-0.267l0.8-0.6 0.8 0.6c0.467 0.333 1.067 0.333 1.533 0s0.667-0.933 0.467-1.467l-0.333-0.933 0.8-0.6c0.667-0.333 0.8-0.867 0.667-1.467zM30.533 15.067l-1.4 1 0.533 1.667c0.067 0.133 0 0.267-0.133 0.333-0.067 0.067-0.267 0.067-0.333 0l-1.4-1-1.4 1c-0.133 0.067-0.267 0.067-0.333 0-0.133-0.067-0.133-0.2-0.133-0.333l0.533-1.667-1.4-1c-0.133-0.067-0.133-0.2-0.133-0.333 0.067-0.133 0.133-0.2 0.267-0.2h1.733l0.533-1.667c0.067-0.133 0.2-0.133 0.267-0.133s0.267 0 0.267 0.133l0.533 1.667h1.733c0.133 0 0.267 0.067 0.267 0.2 0.133 0.133 0.133 0.267 0 0.333z"></path>
</svg>
