<?xml version="1.0" encoding="utf-8"?>
<!-- Generator: Adobe Illustrator 23.0.4, SVG Export Plug-In . SVG Version: 6.00 Build 0)  -->
<svg version="1.1" id="Layer_1" xmlns="http://www.w3.org/2000/svg" xmlns:xlink="http://www.w3.org/1999/xlink" x="0px" y="0px"
	 viewBox="0 0 32 32" style="enable-background:new 0 0 32 32;" xml:space="preserve">
<title>Course-Review</title>
<path d="M8.1,31.9c-0.6,0-1-0.4-1-1c0-4.7,1.9-8.2,5.3-9.7c-1.3-1.1-2.1-2.7-2.1-4.4c0-3.2,2.6-5.8,5.8-5.8s5.8,2.6,5.8,5.8
	c0,1.7-0.8,3.3-2.1,4.4c3.4,1.5,5.3,5,5.3,9.7c0,0.6-0.4,1-1,1H8.1z M22.8,29.8c-0.2-2-1.1-7.4-6.8-7.4c-5.7,0-6.6,5.4-6.8,7.4H22.8
	z M16,13c-2,0-3.7,1.7-3.7,3.7s1.7,3.7,3.7,3.7c2,0,3.7-1.7,3.7-3.7S18,13,16,13z M2.8,19.8c-0.3,0-0.6-0.1-0.9-0.3
	c-0.6-0.4-0.8-1.1-0.6-1.7L1.7,17L1,16.5c-0.6-0.4-0.8-1.1-0.5-1.7c0.1-0.6,0.7-1,1.4-1h0.8L3,13c0.2-0.6,0.7-1,1.4-1
	c0.7,0,1.3,0.4,1.4,1l0.3,0.7h0.8c0.6,0,1.2,0.4,1.4,1c0.2,0.6,0,1.3-0.5,1.7L7.1,17l0.3,0.7c0.2,0.6,0,1.3-0.5,1.7
	c-0.3,0.2-0.6,0.3-0.9,0.3S5.3,19.7,5,19.5L4.3,19l-0.6,0.5C3.5,19.7,3.2,19.8,2.8,19.8z M5.9,18.3L5.9,18.3l-0.6-1.9l1.5-1.1l0-0.1
	l0.1-0.1l-1.7,0H5l-0.6-1.8l-0.1,0l-0.6,1.8c0,0-1.9,0-1.9,0c0,0,0,0.1,0,0.1l1.5,1.1l-0.6,1.8c0,0,0,0,0,0c0,0,0,0,0,0.1l1.4-1
	l0.1-0.1L5.9,18.3z M26,19.3c-0.3,0-0.7-0.2-0.9-0.3c-0.6-0.4-0.8-1.1-0.6-1.7l0.3-0.7l-0.6-0.5c-0.6-0.4-0.8-1.1-0.5-1.7
	c0.2-0.6,0.8-1,1.5-1h0.8l0.3-0.8c0.2-0.6,0.7-1,1.4-1c0.7,0,1.3,0.4,1.4,1l0.3,0.7h0.8c0.7,0,1.2,0.4,1.5,1
	c0.2,0.8-0.1,1.4-0.8,1.8l-0.6,0.5l0.3,0.7c0.2,0.6,0,1.3-0.5,1.7c-0.3,0.2-0.6,0.3-0.9,0.3s-0.6-0.1-0.9-0.3l-0.6-0.5L26.9,19
	C26.7,19.2,26.4,19.3,26,19.3z M29.1,17.8L29.1,17.8L28.6,16l1.5-1.1l0,0l0-0.1l-1.7,0h-0.2L27.6,13l-0.1,0L27,14.8c0,0-1.9,0-1.9,0
	c0,0,0,0.1,0,0.1l1.5,1.1L26,17.8c0,0,0,0,0,0c0,0,0,0,0,0.1l1.4-1l0.1-0.1L29.1,17.8z M23.2,10.4c-0.3,0-0.6-0.1-0.9-0.3
	c-0.6-0.4-0.8-1.1-0.6-1.7L22,7.6l-0.6-0.5c-0.5-0.4-0.7-1-0.5-1.7c0.1-0.6,0.7-1,1.4-1h0.8l0.3-0.8c0.2-0.6,0.7-1,1.4-1
	c0.8,0,1.3,0.5,1.3,1.1l0.3,0.7h0.8c0.6,0,1.2,0.4,1.4,1c0.2,0.6,0,1.3-0.5,1.7l-0.6,0.5l0.3,0.7c0.2,0.6,0,1.3-0.5,1.7
	c-0.3,0.2-0.6,0.3-0.9,0.3c-0.3,0-0.6-0.1-0.9-0.3l-0.6-0.5L24,10.1C23.8,10.3,23.5,10.4,23.2,10.4z M26.3,8.9L26.3,8.9L25.8,7
	l1.5-1.1l0-0.1l0.1-0.1l-1.7,0h-0.2l-0.6-1.8l-0.1,0l-0.6,1.8l-1.9,0c0,0,0,0.1,0,0.1L23.8,7l-0.6,1.8c0,0,0,0,0,0c0,0,0,0,0,0.1
	l1.4-1l0.1-0.1L26.3,8.9z M5.9,10.4c-0.3,0-0.6-0.1-0.9-0.3C4.5,9.7,4.2,9,4.5,8.4l0.3-0.7L4.1,7.1c-0.6-0.4-0.8-1-0.5-1.7
	c0.2-0.6,0.8-1,1.5-1h0.8l0.3-0.8c0.2-0.6,0.7-1,1.4-1c0.8,0,1.3,0.5,1.3,1.1l0.3,0.7h0.8c0.6,0,1.2,0.4,1.4,1
	c0.2,0.6,0,1.3-0.5,1.7l-0.6,0.5l0.3,0.7c0.2,0.6,0,1.3-0.5,1.7c-0.3,0.2-0.6,0.3-0.9,0.3c-0.3,0-0.6-0.1-0.9-0.3L7.4,9.6l-0.6,0.5
	C6.6,10.3,6.3,10.4,5.9,10.4z M9,8.9L9,8.9L8.5,7L10,5.9l0-0.1L10,5.8l-1.7,0H8.1L7.6,4.1l-0.1,0L6.9,5.9H5c0,0-0.1,0-0.1,0
	c0,0,0,0,0,0L6.5,7L5.9,8.9c0,0,0,0,0,0c0,0,0,0,0,0.1l1.4-1l0.1-0.1L9,8.9z M14.4,7.9c-0.3,0-0.6-0.1-0.9-0.3
	C13,7.2,12.8,6.5,13,5.9l0.3-0.7l-0.6-0.4c-0.6-0.4-0.8-1.1-0.6-1.7c0.2-0.6,0.8-1,1.5-1h0.8l0.3-0.8c0.2-0.6,0.7-1,1.4-1
	c0.7,0,1.3,0.4,1.4,1L17.7,2h0.8c0.6,0,1.2,0.4,1.4,1c0.2,0.6,0,1.3-0.5,1.7l-0.8,0.4l0.3,0.7c0.2,0.6,0,1.3-0.5,1.7
	c-0.3,0.2-0.6,0.3-0.9,0.3c-0.3,0-0.6-0.1-0.9-0.3l-0.6-0.5l-0.6,0.5C15.1,7.8,14.8,7.9,14.4,7.9z M17.5,6.5L17.5,6.5L17,4.6
	l1.5-1.1l0-0.1l0.1-0.1l-1.7,0h-0.2L16,1.7l-0.1,0l-0.6,1.7h-1.9c0,0,0,0-0.1,0.1c0,0,0,0,0,0.1L15,4.6l-0.6,1.7c0,0,0,0,0,0
	c0,0,0,0,0,0.1l1.4-1L16,5.3L17.5,6.5z"/>
</svg>
