<!-- Generated by IcoMoon.io -->
<svg version="1.1" xmlns="http://www.w3.org/2000/svg" width="32" height="32" viewBox="0 0 32 32">
<title>Course-Thumbnail</title>
<path d="M28.733 2h-25.467c-1.6 0-2.933 1.333-2.933 2.933v22.133c0 1.6 1.333 2.933 2.933 2.933h25.4c1.6 0 2.933-1.333 2.933-2.933v-22.133c0.067-1.6-1.267-2.933-2.867-2.933zM30.133 27.067c0 0.8-0.667 1.467-1.467 1.467h-25.4c-0.8 0-1.467-0.667-1.467-1.467v-5.933l8.267-8.4 7.467 8.533c0.267 0.267 0.667 0.333 1 0.133l6.067-4.267 5.667 4.067v5.867zM30.2 19.467l-5.267-3.8c-0.267-0.2-0.6-0.2-0.867 0l-5.933 4.2-7.467-8.667c-0.133-0.133-0.333-0.2-0.533-0.267-0.2 0-0.4 0.067-0.533 0.2l-7.8 7.933v-14.133c0-0.8 0.667-1.467 1.467-1.467h25.4c0.8 0 1.467 0.667 1.467 1.467v14.533zM20.467 6.4c-2.067 0-3.8 1.733-3.8 3.8s1.667 3.8 3.8 3.8c2.067 0 3.8-1.733 3.8-3.8-0.067-2.133-1.733-3.8-3.8-3.8zM20.467 12.467c-1.267 0-2.333-1.067-2.333-2.333 0-1.333 1.067-2.333 2.333-2.333s2.333 1.067 2.333 2.333-1.067 2.333-2.333 2.333z"></path>
</svg>
