<?xml version="1.0" encoding="utf-8"?>
<!-- Generator: Adobe Illustrator 23.0.4, SVG Export Plug-In . SVG Version: 6.00 Build 0)  -->
<svg version="1.1" id="Layer_1" xmlns="http://www.w3.org/2000/svg" xmlns:xlink="http://www.w3.org/1999/xlink" x="0px" y="0px"
	 viewBox="0 0 32 32" style="enable-background:new 0 0 32 32;" xml:space="preserve">
<title>Course-Thumbnail</title>
<path d="M3.3,30.2c-1.7,0-3.2-1.5-3.2-3.2V4.9c0-1.7,1.5-3.2,3.2-3.2h25.5c0.8,0,1.7,0.4,2.3,1c0.6,0.6,0.9,1.4,0.9,2.2v22.1
	c0,1.7-1.5,3.2-3.2,3.2H3.3z M2,27.1c0,0.7,0.6,1.2,1.2,1.2h25.4c0.7,0,1.2-0.6,1.2-1.2v-0.2H30v-5.5l-5.4-3.9l-5.9,4.2
	c-0.2,0.1-0.4,0.2-0.6,0.2c-0.3,0-0.6-0.1-0.8-0.3l-7.3-8.3l-8,8.1V27.1z M10.2,10.7L10.2,10.7c0.3,0.1,0.5,0.2,0.7,0.3l7.3,8.5
	l5.7-4.1c0.2-0.1,0.4-0.2,0.6-0.2c0.2,0,0.4,0.1,0.6,0.2l4.8,3.5v-14c0-0.7-0.6-1.2-1.2-1.2H3.3C2.6,3.7,2,4.3,2,4.9v13.5L9.4,11
	C9.6,10.8,9.9,10.7,10.2,10.7L10.2,10.7z M20.5,14.2c-2.2,0-4-1.8-4-4c0-2.2,1.9-4.1,4-4.1c2.2,0,4,1.8,4,4
	C24.5,12.4,22.7,14.2,20.5,14.2z M20.5,8.1c-1.2,0-2.1,0.9-2.1,2.1c0,1.1,1,2.1,2.1,2.1s2.1-1,2.1-2.1S21.6,8.1,20.5,8.1z"/>
</svg>
