<!-- Generated by IcoMoon.io -->
<svg version="1.1" xmlns="http://www.w3.org/2000/svg" width="32" height="32" viewBox="0 0 32 32">
<title>Course-Description</title>
<path d="M4.867 24.533c-0.333 0-0.667 0.267-0.667 0.667s0.267 0.667 0.667 0.667h7.4c0.333 0 0.667-0.267 0.667-0.667s-0.267-0.667-0.667-0.667h-7.4zM18.6 13.4c0-0.333-0.267-0.667-0.667-0.667h-13.067c-0.333 0-0.667 0.267-0.667 0.667s0.267 0.667 0.667 0.667h13.133c0.333-0.067 0.6-0.333 0.6-0.667zM21.933 27.733c-0.4 0-0.733 0.333-0.733 0.733v1.2h-19.533v-20.8h5.8c0.4 0 0.733-0.333 0.733-0.733v-5.8h12.933v9.067c0 0.4 0.333 0.733 0.733 0.733s0.733-0.333 0.733-0.733v-9.8c0-0.4-0.333-0.733-0.733-0.733h-14.4c0 0-0.067 0-0.067 0-0.067 0-0.067 0-0.067 0-0.133 0.067-0.267 0.067-0.333 0.2l-6.533 6.533c-0.067 0.067-0.133 0.2-0.2 0.333 0 0.067 0 0.067 0 0.133 0 0 0 0.067 0 0.067v22.267c0 0.4 0.333 0.733 0.733 0.733h21c0.4 0 0.733-0.333 0.733-0.733v-1.933c-0.067-0.4-0.4-0.733-0.8-0.733zM2.733 7.4l4-4v4h-4zM14.533 21.267c0-0.333-0.267-0.667-0.667-0.667h-9c-0.333 0-0.667 0.267-0.667 0.667s0.267 0.667 0.667 0.667h9c0.333 0 0.667-0.333 0.667-0.667zM16.667 17.333c0-0.333-0.267-0.667-0.667-0.667h-11.133c-0.333 0-0.667 0.267-0.667 0.667s0.267 0.667 0.667 0.667h11.133c0.333 0 0.667-0.333 0.667-0.667zM31.2 13.533l-2.933-2.933c-0.8-0.8-2.2-0.8-3 0l-9.133 9.2c-0.067 0.067-0.133 0.133-0.133 0.267l-1.667 4.467c0 0 0 0 0 0l-1.2 3.2c-0.133 0.267 0 0.6 0.2 0.8 0.133 0.133 0.333 0.2 0.533 0.2 0.067 0 0.2 0 0.267-0.067l3.2-1.2c0 0 0 0 0 0l4.467-1.667c0.133-0.067 0.2-0.067 0.267-0.2l9.2-9.2c0.4-0.4 0.6-0.933 0.6-1.467s-0.267-1-0.667-1.4zM15.667 26.533l-0.533 0.2 0.2-0.533 0.333 0.333zM20.133 24.867l-2.933 1.067-1.333-1.333 1.067-2.933 3.2 3.2zM30.333 15c0 0.133-0.067 0.333-0.2 0.4l-8.667 8.667-3.733-3.8 8.667-8.667c0.2-0.2 0.6-0.2 0.867 0l2.933 2.933c0.067 0.2 0.133 0.333 0.133 0.467z"></path>
</svg>
