<?xml version="1.0" encoding="utf-8"?>
<!-- Generator: Adobe Illustrator 23.0.4, SVG Export Plug-In . SVG Version: 6.00 Build 0)  -->
<svg version="1.1" id="Layer_1" xmlns="http://www.w3.org/2000/svg" xmlns:xlink="http://www.w3.org/1999/xlink" x="0px" y="0px"
	 viewBox="0 0 32 32" style="enable-background:new 0 0 32 32;" xml:space="preserve">
<path d="M5.1,25.8c-0.5,0-0.9-0.4-0.9-0.9c0-0.5,0.4-0.9,0.9-0.9h6.2c0.5,0,0.9,0.4,0.9,0.9c0,0.5-0.4,0.9-0.9,0.9H5.1z"/>
<path d="M5.1,22c-0.5,0-0.9-0.4-0.9-0.9c0-0.5,0.4-0.9,0.9-0.9h7.7c0.5,0,0.9,0.4,0.9,0.9c0,0.5-0.4,0.9-0.9,0.9H5.1z"/>
<path d="M1.4,30.9c-0.5,0-0.9-0.4-0.9-0.9V8.1l0,0c0.1-0.2,0.1-0.3,0.2-0.4L7,1.4c0.1-0.2,0.3-0.2,0.3-0.2l0.1-0.1l14.2,0
	c0.5,0,0.9,0.4,0.9,0.9v7.5c0,0.5-0.4,0.9-0.9,0.9c-0.5,0-0.9-0.4-0.9-0.9V3H8.6v5.4c0,0.5-0.4,0.9-0.9,0.9H2.3V29h18.5v-0.9
	c0-0.5,0.4-0.9,0.9-0.9c0.5,0,0.9,0.4,1,0.9l0,1.9c0,0.5-0.4,0.9-0.9,0.9H1.4z M3.6,7.4h3.1V4.3L3.6,7.4z"/>
<path d="M14.9,27.6c-0.3,0-0.5-0.1-0.7-0.3c-0.3-0.3-0.4-0.7-0.2-1l2.7-7.4c0-0.2,0.1-0.3,0.2-0.4l7.9-7.9c0.4-0.4,1-0.7,1.6-0.7
	c0.6,0,1.2,0.2,1.6,0.7l2.8,2.8c0.5,0.5,0.7,1,0.7,1.5c0,0.6-0.2,1.2-0.7,1.6L23,24.4c-0.1,0.2-0.2,0.2-0.3,0.2l-0.1,0l-7.4,2.8
	C15.1,27.6,14.9,27.6,14.9,27.6z M17.1,23.3l1.1,1.1l2.4-0.9l-2.6-2.6L17.1,23.3z M26.3,11.9l-7.3,7.3l3.3,3.4l7.4-7.4l0-0.1
	c0-0.1,0-0.1-0.1-0.2l0-0.1l-0.1-0.1l-2.8-2.8l-0.2-0.1c0,0-0.1,0-0.1,0h0L26.3,11.9z"/>
<path d="M5.1,18.2c-0.5,0-0.9-0.4-0.9-0.9c0-0.5,0.4-0.9,0.9-0.9h9.8c0.5,0,0.9,0.4,0.9,0.9c0,0.5-0.4,0.9-0.9,0.9H5.1z"/>
<path d="M5.1,14.4c-0.5,0-0.9-0.4-0.9-0.9c0-0.5,0.4-0.9,0.9-0.9h11.7c0.5,0,0.9,0.4,0.9,0.9c0,0.4-0.3,0.8-0.8,0.9l0,0H5.1z"/>
</svg>
