<?xml version="1.0" encoding="utf-8"?>
<!-- Generator: Adobe Illustrator 23.0.4, SVG Export Plug-In . SVG Version: 6.00 Build 0)  -->
<svg version="1.1" id="Layer_1" xmlns="http://www.w3.org/2000/svg" xmlns:xlink="http://www.w3.org/1999/xlink" x="0px" y="0px"
	 viewBox="0 0 32 32" style="enable-background:new 0 0 32 32;" xml:space="preserve">
<title>Course-Social-Share</title>
<path d="M16,31.6c-2.6,0-5.1-0.6-7.4-1.9l-6.3,1.8l-0.4,0c-0.4,0-0.9-0.1-1.1-0.4c-0.4-0.4-0.5-0.9-0.3-1.5l2.2-5.6
	c-2.9-4.8-3-10.8-0.3-15.7c2.7-4.9,7.9-8,13.6-8c6.5,0,12.4,4.1,14.6,10.2c2.2,6.1,0.5,13.1-4.4,17.3C23.4,30.3,19.8,31.6,16,31.6z
	 M8.7,27.6c0.2,0,0.4,0.1,0.5,0.2c2.1,1.2,4.4,1.8,6.8,1.8c6.2,0,11.6-4.2,13.2-10.2C30.8,13.3,28,7,22.5,4.1
	c-2-1.1-4.2-1.6-6.5-1.6c-3.8,0-7.4,1.6-10,4.4c-4.2,4.6-4.8,11.4-1.4,16.6c0.2,0.3,0.2,0.6,0.1,0.9l-2,4.9l5.7-1.7H8.7z M20.6,26.4
	c-0.5,0-1.1,0-1.7-0.4c-1.7-0.8-2.6-2.8-2.1-4.6l-4.9-2.8c-0.8,0.8-1.8,1.3-3,1.3c-0.4,0-0.8-0.1-1.2-0.2C6,19.2,4.9,17.7,5,16
	c0-1.7,1.1-3.2,2.8-3.7c0.4-0.1,0.7-0.1,1.1-0.1c1.2,0,2.3,0.5,3,1.4l4.7-2.4c-0.3-1.5,0.3-3.1,1.7-4c0.7-0.5,1.4-0.7,2.2-0.7
	c0.9,0,1.7,0.3,2.4,0.8c1.4,1.1,1.9,2.8,1.3,4.4c-0.5,1.6-2,2.6-3.7,2.6c-1.2,0-2.4-0.6-3.1-1.6l-4.6,2.3c0.1,0.6,0.1,1.3-0.1,2
	l4.9,2.8c0.7-0.8,1.8-1.3,2.9-1.3c0.8,0,1.5,0.2,2.2,0.7c1.7,1.2,2.3,3.4,1.3,5.3C23.3,25.7,22,26.4,20.6,26.4z M20.5,20.4
	c-1.2,0-2.1,0.9-2.1,2.1s0.9,2.1,2.1,2.1c1.1,0,2.1-1,2.1-2.1C22.6,21.4,21.7,20.4,20.5,20.4z M8.9,13.9c-1.2,0-2.1,0.9-2.1,2.1
	c0,1.2,0.9,2.1,2.1,2.1c1.2,0,2.1-0.9,2.1-2.1C11.1,14.9,10.1,13.9,8.9,13.9z M20.5,8.4c-1.2,0-2.1,0.9-2.1,2.1c0,1.1,1,2.1,2.1,2.1
	s2.1-1,2.1-2.1C22.6,9.3,21.7,8.4,20.5,8.4z"/>
</svg>
