<!-- Generated by IcoMoon.io -->
<svg version="1.1" xmlns="http://www.w3.org/2000/svg" width="32" height="32" viewBox="0 0 32 32">
<title>Course-Social-Share</title>
<path d="M30.4 10.667c-2.2-6-8-10-14.4-10-5.6 0-10.733 3-13.4 7.867-2.733 4.867-2.6 10.8 0.333 15.533l-2.2 5.667c-0.133 0.467-0.067 0.933 0.267 1.267 0.2 0.2 0.533 0.333 0.933 0.333 0.067 0 0.2 0 0.333 0l6.4-1.867c5.6 3.067 12.533 2.333 17.4-1.8 4.8-4.133 6.533-11 4.333-17zM4.467 24.267c0.067-0.2 0.067-0.467-0.067-0.667-3.467-5.333-2.867-12.267 1.467-16.933s11.2-5.8 16.8-2.8c5.6 3 8.4 9.4 6.8 15.6-1.6 6.067-7.133 10.4-13.467 10.4v0c0 0 0 0 0 0-2.4 0-4.8-0.667-6.867-1.867-0.133-0.067-0.267-0.133-0.4-0.133-0.067 0-0.133 0-0.2 0l-6.2 1.8 2.133-5.4zM11.8 18.333l5.267 3c-0.6 1.733 0.2 3.733 1.933 4.533 0.533 0.267 1.067 0.333 1.6 0.333 1.267 0 2.533-0.667 3.2-1.867 0.933-1.667 0.467-3.8-1.2-4.933-1.6-1.067-3.667-0.733-4.867 0.733l-5.267-3c0.267-0.733 0.267-1.533 0.067-2.2l5-2.467c0.667 1 1.867 1.667 3.067 1.667 0 0 0 0 0 0 1.6 0 3-1 3.467-2.467 0.533-1.533 0-3.133-1.267-4.133s-3-1.067-4.333-0.133c-1.267 0.867-1.933 2.4-1.533 3.933l-5.067 2.533c-0.933-1.267-2.533-1.733-4-1.333-1.533 0.467-2.6 1.867-2.6 3.467-0.067 1.6 0.933 3 2.467 3.533 1.467 0.467 3.067 0 4.067-1.2zM8.933 18.333c-1.333 0-2.333-1.067-2.333-2.333 0-1.333 1.067-2.333 2.333-2.333s2.4 1 2.4 2.333c0 1.333-1.067 2.333-2.4 2.333zM18.2 22.533c0-1.333 1.067-2.333 2.333-2.333 1.333 0 2.333 1.067 2.333 2.333s-1.067 2.333-2.333 2.333-2.333-1-2.333-2.333zM18.2 10.467c0-1.333 1.067-2.333 2.333-2.333 1.333 0 2.333 1.067 2.333 2.333s-1.067 2.333-2.333 2.333-2.333-1.067-2.333-2.333z"></path>
</svg>
