<!-- Generated by IcoMoon.io -->
<svg version="1.1" xmlns="http://www.w3.org/2000/svg" width="32" height="32" viewBox="0 0 32 32">
<title>Course-Benifits</title>
<path d="M16 20.733c1.333 0 2.333 1.067 2.333 2.333 0 0.467 0.333 0.8 0.8 0.8s0.8-0.333 0.8-0.8c0-2.2-1.733-3.933-3.933-3.933-0.467 0-0.8 0.333-0.8 0.8s0.333 0.8 0.8 0.8zM18.733 13.467l8.4-9.467c1.067-1.2 0.933-2.133 0.667-2.6-0.2-0.467-0.8-1.2-2.4-1.2h-18.867c-1.6 0-2.2 0.733-2.4 1.2-0.2 0.4-0.4 1.4 0.733 2.6l8.4 9.467c0.4 0.4 0.867 0.733 1.4 1-4.267 0.667-7.4 4.333-7.4 8.667 0 4.8 3.933 8.733 8.733 8.733s8.733-3.933 8.733-8.733c0-4.333-3.133-8-7.4-8.667 0.6-0.267 1.067-0.6 1.4-1zM23 23.067c0 3.867-3.133 7-7 7s-7-3.133-7-7 3.133-6.933 7-6.933 7 3.133 7 6.933zM14.6 12.267l-8.4-9.467c-0.4-0.4-0.4-0.667-0.4-0.667 0-0.067 0.267-0.2 0.8-0.2h18.867c0.533 0 0.8 0.133 0.8 0.133 0 0.067-0.067 0.333-0.4 0.733l-8.467 9.467c-0.4 0.4-0.867 0.667-1.4 0.667 0 0 0 0 0 0-0.533 0-1.067-0.267-1.4-0.667z"></path>
</svg>
