<?xml version="1.0" encoding="utf-8"?>
<!-- Generator: Adobe Illustrator 23.0.4, SVG Export Plug-In . SVG Version: 6.00 Build 0)  -->
<svg version="1.1" id="Layer_1" xmlns="http://www.w3.org/2000/svg" xmlns:xlink="http://www.w3.org/1999/xlink" x="0px" y="0px"
	 viewBox="0 0 32 32" style="enable-background:new 0 0 32 32;" xml:space="preserve">
<title>Course-Benifits</title>
<path d="M16,31.7c-4.8,0-8.7-3.9-8.7-8.7c0-4.1,2.8-7.6,6.8-8.5c-0.3-0.2-0.6-0.4-0.8-0.7L5,4.5C3.7,3.1,4.1,1.9,4.2,1.7
	C4.4,1.3,5,0.4,6.8,0.4h18.4c1.8,0,2.4,0.9,2.6,1.3C27.9,2,28.3,3,27,4.5l-8.2,9.2c-0.2,0.3-0.5,0.5-0.8,0.7
	c3.9,0.9,6.7,4.4,6.7,8.5C24.7,27.8,20.8,31.7,16,31.7z M16,16.4c-3.6,0-6.6,2.9-6.6,6.5c0,3.6,2.9,6.6,6.6,6.6
	c3.6,0,6.6-2.9,6.6-6.6C22.6,19.3,19.6,16.4,16,16.4z M6.4,2.6c0,0.1,0.1,0.2,0.3,0.4l8.2,9.2c0.3,0.3,0.7,0.6,1.2,0.6
	c0.4,0,0.8-0.2,1.2-0.6L25.4,3c0.1-0.2,0.2-0.3,0.3-0.4c-0.1,0-0.3,0-0.5,0H6.9C6.6,2.6,6.5,2.6,6.4,2.6z M19,23.9c-0.6,0-1-0.4-1-1
	c0-1.1-0.9-2-2-2c-0.6,0-1-0.4-1-1s0.4-1,1-1c2.3,0,4.1,1.8,4.1,4.1C20.1,23.5,19.6,23.9,19,23.9z"/>
</svg>
