<svg width="32" height="32" viewBox="0 0 32 32" fill="none" xmlns="http://www.w3.org/2000/svg">
<path d="M14.1169 29.5005C14.8073 29.5005 15.3669 28.9809 15.3669 28.3398C15.3669 27.6988 14.8073 27.1791 14.1169 27.1791C13.4265 27.1791 12.8669 27.6988 12.8669 28.3398C12.8669 28.9809 13.4265 29.5005 14.1169 29.5005Z" stroke="black" stroke-width="2" stroke-linecap="round" stroke-linejoin="round"/>
<path d="M24.474 29.5005C25.1644 29.5005 25.724 28.9809 25.724 28.3398C25.724 27.6988 25.1644 27.1791 24.474 27.1791C23.7837 27.1791 23.224 27.6988 23.224 28.3398C23.224 28.9809 23.7837 29.5005 24.474 29.5005Z" stroke="black" stroke-width="2" stroke-linecap="round" stroke-linejoin="round"/>
<path d="M2 3H7.09091L10.5018 19.9603C10.6182 20.5434 10.937 21.0672 11.4023 21.4401C11.8677 21.8129 12.45 22.0109 13.0473 21.9995H25.4182C26.0155 22.0109 26.5978 21.8129 27.0631 21.4401C27.5285 21.0672 27.8473 20.5434 27.9636 19.9603L30 9.33318H8.36364" stroke="black" stroke-width="1.8" stroke-linecap="round" stroke-linejoin="round"/>
</svg>
