<svg version="1.0" xmlns="http://www.w3.org/2000/svg" width="32" height="32" style="enable-background:new 0 0 32 32" xml:space="preserve"><path d="M30.8 8.7c-.2-.2-.4-.3-.7-.3h-21L7.9 2.7C7.8 2.3 7.5 2 7 2H1.9c-.5 0-.9.4-.9.9s.4.9.9.9h4.4l1.1 5.6v.1l2.1 10.7c.2.8.6 1.5 1.2 2s1.4.8 2.2.8h12.4c.8 0 1.6-.3 2.2-.8.6-.5 1.1-1.2 1.2-2L31 9.4c0-.3 0-.5-.2-.7zm-3.6 11.1c-.1.4-.3.7-.6 1-.3.2-.7.4-1.1.4H13c-.4 0-.8-.1-1.1-.4-.3-.2-.5-.6-.6-1l-1.9-9.6H29l-1.8 9.6z"/><circle cx="14" cy="28" r="2"/><circle cx="24.1" cy="28" r="2"/></svg>