<!-- Generated by IcoMoon.io -->
<svg version="1.1" xmlns="http://www.w3.org/2000/svg" width="32" height="32" viewBox="0 0 32 32">
<title>Course-Requirements</title>
<path d="M21.4 15.533l-6.8 6.933-3-3.8c-0.267-0.333-0.8-0.4-1.133-0.133s-0.4 0.8-0.133 1.133l3.533 4.467c0.067 0.133 0.2 0.2 0.4 0.267 0.067 0 0.133 0 0.2 0.067 0.2 0 0.467-0.067 0.6-0.267l7.467-7.533c0.333-0.333 0.333-0.8 0-1.133-0.333-0.267-0.8-0.267-1.133 0zM24.733 1.733h-6.467c-0.333-0.933-1.2-1.6-2.2-1.6s-1.933 0.667-2.2 1.6h-6.467c-2.267 0-4.067 1.8-4.067 4v22.2c0 2.2 1.8 3.933 3.933 3.933h17.4c2.2 0 3.933-2.533 3.933-4.733v-21.4c0.067-2.2-1.733-4-3.867-4zM11.267 3.333h2.533c0.333 0.933 1.2 1.6 2.2 1.6s1.933-0.667 2.2-1.6h2.533v4.733h-9.467v-4.733zM27.067 27.067c0 1.4-1.133 3.2-2.4 3.2h-17.4c-1.333 0-2.4-1.067-2.4-2.4v-22.133c0.067-1.333 1.133-2.4 2.4-2.4h2.4v5.533c0 0.467 0.333 0.8 0.8 0.8h11.067c0.467 0 0.8-0.333 0.8-0.8v-5.533h2.4c1.333 0 2.4 1.067 2.4 2.4v21.333z"></path>
</svg>
