<?xml version="1.0" encoding="utf-8"?>
<!-- Generator: Adobe Illustrator 23.0.4, SVG Export Plug-In . SVG Version: 6.00 Build 0)  -->
<svg version="1.1" id="Layer_1" xmlns="http://www.w3.org/2000/svg" xmlns:xlink="http://www.w3.org/1999/xlink" x="0px" y="0px"
	 viewBox="0 0 32 32" style="enable-background:new 0 0 32 32;" xml:space="preserve">
<title>Course-Requirements</title>
<path d="M7.4,31.8c-2.3,0-4.1-1.8-4.1-4.1V5.9c0-2.3,1.9-4.2,4.2-4.2h6.2c0.4-0.9,1.3-1.6,2.3-1.6c1,0,1.9,0.6,2.3,1.6h6.2
	c1.1,0,2.1,0.5,2.9,1.2c0.8,0.8,1.2,1.8,1.1,2.9v21c0,2.3-1.8,4.9-4.1,4.9H7.4z M7.4,3.8c-1.1,0-2.1,1-2.1,2.1l0,21.7
	c0,1.2,0.9,2.1,2.1,2.1h17.1c1.1,0,2.1-1.6,2.1-2.9v-0.2h0.1V5.9c0-1.2-0.9-2.1-2.1-2.1h-2.1V9c0,0.6-0.4,1-1,1H10.6
	c-0.6,0-1-0.4-1-1V3.8H7.4z M20.4,8V3.8h-2.1C18,4.7,17,5.4,16,5.4c-1,0-1.9-0.6-2.3-1.6h-2.1V8H20.4z M14.4,24.6L14.4,24.6l0.1-0.2
	L14.4,24.6l-0.2-0.1c-0.2-0.1-0.4-0.2-0.5-0.4l-3.4-4.3c-0.3-0.4-0.3-1.1,0.2-1.5c0.2-0.1,0.4-0.2,0.6-0.2c0.3,0,0.6,0.1,0.8,0.4
	l2.8,3.5l6.5-6.6c0.2-0.2,0.5-0.3,0.7-0.3c0.3,0,0.5,0.1,0.7,0.3c0.2,0.2,0.3,0.5,0.3,0.7c0,0.3-0.1,0.5-0.3,0.7l-7.3,7.4
	c-0.2,0.3-0.6,0.3-0.8,0.3H14.4z"/>
</svg>
