<!-- Generated by IcoMoon.io -->
<svg version="1.1" xmlns="http://www.w3.org/2000/svg" width="32" height="32" viewBox="0 0 32 32">
<title>Course-Duration</title>
<path d="M27.2 4.8c-3-3-7-4.667-11.2-4.667s-8.2 1.667-11.2 4.667-4.667 7-4.667 11.2 1.667 8.2 4.667 11.2 7 4.667 11.2 4.667 8.2-1.667 11.2-4.667 4.667-7 4.667-11.2-1.667-8.2-4.667-11.2zM16 30.467c-3.867 0-7.467-1.533-10.2-4.267s-4.267-6.333-4.267-10.2c0-3.867 1.533-7.467 4.267-10.2s6.333-4.267 10.2-4.267c3.867 0 7.467 1.533 10.2 4.267s4.267 6.333 4.267 10.2c0 3.867-1.533 7.467-4.267 10.2s-6.333 4.267-10.2 4.267zM16 26.333c-0.4 0-0.667 0.333-0.667 0.667v1.4c0 0.4 0.333 0.667 0.667 0.667s0.667-0.333 0.667-0.667v-1.4c0-0.333-0.267-0.667-0.667-0.667zM28.4 15.333h-1.4c-0.4 0-0.667 0.333-0.667 0.667s0.333 0.667 0.667 0.667h1.4c0.4 0 0.667-0.333 0.667-0.667s-0.267-0.667-0.667-0.667zM5 15.333h-1.4c-0.4 0-0.667 0.333-0.667 0.667s0.333 0.667 0.667 0.667h1.4c0.4 0 0.667-0.333 0.667-0.667s-0.333-0.667-0.667-0.667zM24.267 6.733l-0.933 1c-0.267 0.267-0.267 0.733 0 1 0.133 0.133 0.333 0.2 0.467 0.2 0.2 0 0.333-0.067 0.467-0.2l1-1c0.267-0.267 0.267-0.733 0-1s-0.733-0.267-1 0zM7.733 23.333l-1 1c-0.267 0.267-0.267 0.733 0 1 0.133 0.133 0.333 0.2 0.467 0.2 0.2 0 0.333-0.067 0.467-0.2l1-1c0.267-0.267 0.267-0.733 0-1s-0.667-0.267-0.933 0zM24.267 23.333c-0.267-0.267-0.733-0.267-1 0s-0.267 0.733 0 1l1 1c0.133 0.133 0.333 0.2 0.467 0.2 0.2 0 0.333-0.067 0.467-0.2 0.267-0.267 0.267-0.733 0-1l-0.933-1zM7.733 6.733c-0.267-0.267-0.733-0.267-1 0s-0.267 0.733 0 1l1 1c0.133 0.133 0.333 0.2 0.467 0.2s0.333-0.067 0.467-0.2c0.267-0.267 0.267-0.733 0-1l-0.933-1zM16.8 14v-10.4c0-0.467-0.333-0.8-0.8-0.8s-0.8 0.333-0.8 0.8v10.4c-0.8 0.333-1.4 1.133-1.4 2 0 0.267 0.067 0.6 0.2 0.867l-3.6 3.6c-0.133 0.133-0.2 0.333-0.2 0.533s0.067 0.4 0.2 0.533c0.133 0.133 0.333 0.2 0.533 0.2s0.4-0.067 0.533-0.2l3.6-3.6c0.267 0.133 0.6 0.2 0.867 0.2 1.2 0 2.133-1 2.133-2.133 0.067-0.867-0.467-1.667-1.267-2zM16 16.6c-0.133 0-0.267-0.067-0.4-0.133v-0.067c0 0 0 0 0 0s0 0 0 0c-0.067-0.067-0.133-0.2-0.133-0.4 0-0.333 0.267-0.6 0.6-0.6s0.6 0.267 0.6 0.6-0.333 0.6-0.667 0.6z"></path>
</svg>
