<?xml version="1.0" encoding="utf-8"?>
<!-- Generator: Adobe Illustrator 23.0.4, SVG Export Plug-In . SVG Version: 6.00 Build 0)  -->
<svg version="1.1" id="Layer_1" xmlns="http://www.w3.org/2000/svg" xmlns:xlink="http://www.w3.org/1999/xlink" x="0px" y="0px"
	 viewBox="0 0 32 32" style="enable-background:new 0 0 32 32;" xml:space="preserve">
<title>Course-Duration</title>
<path d="M16,31.7c-4.2,0-8.1-1.6-11.1-4.6S0.3,20.2,0.3,16c0-4.2,1.6-8.1,4.6-11.1S11.8,0.3,16,0.3c4.2,0,8.1,1.6,11.1,4.6
	s4.6,6.9,4.6,11.1c0,4.2-1.6,8.1-4.6,11.1S20.2,31.7,16,31.7z M16,2.1c-3.7,0-7.1,1.5-9.8,4.1C3.6,8.9,2.1,12.3,2.1,16
	c0,3.7,1.5,7.1,4.1,9.8c2.6,2.6,6.1,4.1,9.8,4.1c3.7,0,7.1-1.5,9.8-4.1c2.6-2.6,4.1-6.1,4.1-9.8c0-3.7-1.5-7.1-4.1-9.8
	C23.1,3.6,19.7,2.1,16,2.1z M16,29c-0.4,0-0.9-0.3-0.9-0.9v-1.4c0-0.4,0.3-0.9,0.9-0.9c0.6,0,0.9,0.5,0.9,0.9v1.4
	C16.9,28.6,16.5,29,16,29z M24.5,25.5c-0.2,0-0.4-0.1-0.6-0.3l-1-1c-0.4-0.4-0.4-1,0-1.3c0.2-0.2,0.4-0.3,0.7-0.3
	c0.3,0,0.5,0.1,0.7,0.3l0.9,1c0.4,0.4,0.4,1,0,1.3C25,25.5,24.8,25.5,24.5,25.5z M7.4,25.5c-0.2,0-0.4-0.1-0.6-0.3
	c-0.2-0.2-0.3-0.4-0.3-0.7c0-0.3,0.1-0.5,0.3-0.7l1-1c0.2-0.2,0.4-0.3,0.6-0.3c0.2,0,0.5,0.1,0.6,0.3c0.2,0.2,0.3,0.4,0.3,0.7
	c0,0.2-0.1,0.5-0.3,0.7l-1,1C7.9,25.5,7.7,25.5,7.4,25.5z M11.1,21.8c-0.3,0-0.5-0.1-0.7-0.3c-0.2-0.2-0.3-0.4-0.3-0.7
	s0.1-0.5,0.3-0.7l3.4-3.4c-0.1-0.2-0.1-0.5-0.1-0.8c0-0.9,0.6-1.7,1.4-2.1v-10c0-0.6,0.4-1,1-1c0.6,0,1,0.4,1,1v10
	c0.8,0.4,1.3,1.2,1.2,2.1c0,1.3-1,2.3-2.3,2.3c-0.3,0-0.5-0.1-0.8-0.1l-3.4,3.4C11.6,21.7,11.3,21.8,11.1,21.8z M15.9,16.3
	c0.1,0,0.1,0,0.1,0c0.2,0,0.4-0.2,0.4-0.3c0-0.2-0.2-0.3-0.3-0.3c-0.2,0-0.3,0.2-0.3,0.3C15.7,16.2,15.8,16.2,15.9,16.3L15.9,16.3
	L15.9,16.3z M26.7,16.9c-0.5,0-0.9-0.4-0.9-0.9c0-0.4,0.3-0.9,0.9-0.9h1.4c0.6,0,0.9,0.5,0.9,0.9c0,0.4-0.3,0.9-0.9,0.9H26.7z
	 M3.9,16.9C3.4,16.9,3,16.5,3,16c0-0.4,0.3-0.9,0.9-0.9h1.4c0.5,0,0.9,0.4,0.9,0.9c0,0.4-0.3,0.9-0.9,0.9H3.9z M23.6,9.3
	c-0.2,0-0.4-0.1-0.6-0.3c-0.4-0.4-0.4-1,0-1.3l0.9-1c0.2-0.2,0.4-0.3,0.7-0.3c0.3,0,0.5,0.1,0.7,0.3c0.2,0.2,0.3,0.4,0.3,0.7
	c0,0.3-0.1,0.5-0.3,0.7l-1,1C24.1,9.3,23.9,9.3,23.6,9.3z M8.4,9.3c-0.2,0-0.4-0.1-0.6-0.3l-1-1C6.6,7.9,6.5,7.7,6.5,7.4
	c0-0.3,0.1-0.5,0.3-0.7C7,6.6,7.2,6.5,7.4,6.5c0.3,0,0.5,0.1,0.7,0.3l0.9,1c0.2,0.2,0.3,0.4,0.3,0.7c0,0.3-0.1,0.5-0.3,0.7
	C8.8,9.3,8.6,9.3,8.4,9.3z"/>
</svg>
