<!-- Generated by IcoMoon.io -->
<svg version="1.1" xmlns="http://www.w3.org/2000/svg" width="32" height="32" viewBox="0 0 32 32">
<title>Course-Last-Update</title>
<path d="M26.867 5.067l2.467-0.133c0.2 0 0.333-0.2 0.4-0.267s0.267-0.267 0.267-0.467c0-0.333-0.333-0.6-0.667-0.6l-4.333 0.2c-0.333 0-0.6 0.267-0.533 0.667l0.333 4.333c0 0.333 0.333 0.6 0.667 0.6s0.6-0.267 0.533-0.667l-0.2-2.6c5.133 5.133 5.467 13.467 0.6 19-3.8 4.333-10 5.8-15.4 3.733-0.467-0.2-0.8-0.067-1 0.4-0.067 0.2-0.133 0.4-0.067 0.6s0.2 0.333 0.467 0.4c6 2.4 12.867 0.733 17.133-4.067 5.4-6.133 5.067-15.4-0.667-21.133zM6.733 22.8c-0.333 0-0.6 0.267-0.533 0.667l0.2 2.467c-5.333-5.133-5.733-13.6-0.8-19.133 3.8-4.333 10-5.8 15.4-3.733 0.467 0.2 0.8 0.067 1-0.4 0.067-0.2 0.133-0.4 0.067-0.6s-0.2-0.333-0.467-0.4c-6.067-2.333-12.933-0.733-17.2 4.067-5.467 6.267-5 15.733 1 21.4l-2.6 0.133c-0.2 0-0.333 0.2-0.4 0.267s-0.267 0.267-0.2 0.467c0 0.333 0.333 0.6 0.667 0.6l4.333-0.2c0.333 0 0.6-0.267 0.533-0.667l-0.333-4.333c-0.067-0.333-0.333-0.6-0.667-0.6z"></path>
</svg>
