<?xml version="1.0" encoding="utf-8"?>
<!-- Generator: Adobe Illustrator 23.0.4, SVG Export Plug-In . SVG Version: 6.00 Build 0)  -->
<svg version="1.1" id="Layer_1" xmlns="http://www.w3.org/2000/svg" xmlns:xlink="http://www.w3.org/1999/xlink" x="0px" y="0px"
	 viewBox="0 0 32 32" style="enable-background:new 0 0 32 32;" xml:space="preserve">
<title>Course-Last-Update</title>
<path d="M16,31.6c-2,0-3.9-0.4-5.7-1.1c-0.3-0.1-0.5-0.3-0.6-0.6c-0.1-0.3,0-0.5,0.1-0.8c0.2-0.5,0.6-0.7,0.9-0.7
	c0.1,0,0.3,0,0.5,0.1c1.6,0.6,3.2,0.9,4.9,0.9c3.9,0,7.7-1.7,10.2-4.6c4.6-5.2,4.5-13.1-0.1-18.2l0.1,1.9c0,0.2,0,0.5-0.2,0.7
	c-0.1,0.2-0.4,0.3-0.6,0.3c-0.5,0-0.9-0.4-0.9-0.8l-0.3-4.3c0-0.2,0-0.5,0.2-0.7c0.1-0.2,0.4-0.3,0.6-0.3l4.3-0.2
	c0.5,0,0.9,0.4,0.9,0.8c0,0.3-0.2,0.5-0.3,0.6c-0.1,0.1-0.3,0.3-0.6,0.3l-1.9,0.1c5.5,5.9,5.6,15,0.3,21.1
	C24.8,29.7,20.5,31.6,16,31.6z M2.9,28.9C2.4,28.9,2,28.5,2,28c-0.1-0.1,0-0.4,0.3-0.6C2.3,27.2,2.5,27,2.8,27l2-0.1
	c-5.8-5.8-6.1-15.1-0.6-21.3c2.9-3.3,7.2-5.2,11.7-5.2c2,0,3.9,0.4,5.8,1.1C22,1.5,22.2,1.7,22.3,2c0.1,0.3,0,0.5-0.1,0.8
	c-0.2,0.5-0.6,0.7-0.9,0.7c-0.1,0-0.3,0-0.5-0.1c-1.6-0.6-3.2-0.9-4.9-0.9C12.1,2.4,8.3,4.1,5.8,7c-4.7,5.3-4.5,13.2,0.3,18.3
	L6,23.5c0-0.2,0-0.5,0.2-0.7c0.1-0.2,0.4-0.3,0.6-0.3c0.4,0,0.8,0.3,0.9,0.8L8,27.7c0,0.2,0,0.5-0.2,0.7c-0.1,0.2-0.4,0.3-0.6,0.3
	L2.9,28.9L2.9,28.9z"/>
</svg>
