<!-- Generated by IcoMoon.io -->
<svg version="1.1" xmlns="http://www.w3.org/2000/svg" width="28" height="28" viewBox="0 0 32 32" fill="blue">
<style>
</style>
<title>Course-About</title>

<path class="course-about-svg" d="M15.933 9.8c2.733 0 4.933-2.2 4.933-4.933s-2.2-4.867-4.933-4.867-4.933 2.2-4.933 4.933 2.2 4.867 4.933 4.867zM15.933 1.4c1.933 0 3.533 1.6 3.533 3.533s-1.6 3.533-3.533 3.533-3.533-1.6-3.533-3.533 1.6-3.533 3.533-3.533zM31.067 2.2c-0.2-0.133-0.533-0.133-0.733 0l-11.2 7.333c0 0-0.067 0-0.067 0.067-1.867 1.267-4.467 1.267-6.333 0l-11.2-7.4c-0.2-0.133-0.467-0.133-0.733 0-0.2 0.133-0.333 0.333-0.333 0.6v20c0 0.267 0.133 0.467 0.333 0.6l11.133 7.333c1.2 0.8 2.533 1.267 4 1.267 1 0 1.933-0.2 2.867-0.6 0.067 0 0.067 0 0.133-0.067 0.4-0.2 0.733-0.4 1.067-0.6l-0.067-0.133 0.133 0.133 11.133-7.267c0.2-0.133 0.333-0.333 0.333-0.6v-20.067c-0.133-0.267-0.267-0.467-0.467-0.6zM19.8 10.533l0.133 0.133 10.067-6.6v18.333l-10.733 7.067v-18.4c0.2-0.133 0.467-0.267 0.667-0.4l-0.133-0.133zM17.867 11.667v18.533c-1.267 0.467-2.667 0.467-3.867 0v-18.533c1.267 0.333 2.6 0.333 3.867 0zM12.6 11.067v18.4l-10.733-7.067v-18.333l10.067 6.6c0.2 0.2 0.467 0.333 0.667 0.4zM11 20.067l-6.867-4.133c-0.333-0.2-0.733-0.067-0.933 0.2-0.067 0.133-0.133 0.333-0.067 0.533s0.133 0.333 0.333 0.4l6.8 4.267c0.133 0.067 0.267 0.133 0.333 0.133 0.267 0 0.467-0.133 0.6-0.333 0.067-0.133 0.133-0.333 0.067-0.533 0-0.267-0.067-0.4-0.267-0.533zM11 15.933l-6.867-4.2c-0.133-0.067-0.333-0.133-0.533-0.067s-0.333 0.133-0.4 0.333c-0.067 0.133-0.133 0.333-0.067 0.533 0 0.133 0.133 0.267 0.267 0.333l6.867 4.2c0.133 0.067 0.267 0.133 0.333 0.133 0.267 0 0.467-0.133 0.6-0.333 0.267-0.4 0.133-0.8-0.2-0.933z"></path>

</svg>
