<?xml version="1.0" encoding="utf-8"?>
<!-- Generator: Adobe Illustrator 23.0.4, SVG Export Plug-In . SVG Version: 6.00 Build 0)  -->
<svg version="1.1" id="Layer_1" xmlns="http://www.w3.org/2000/svg" xmlns:xlink="http://www.w3.org/1999/xlink" x="0px" y="0px"
	 viewBox="0 0 32 32" style="enable-background:new 0 0 32 32;" xml:space="preserve">
<title>Course-About</title>
<path d="M15.9,31.8c-1.4,0-2.8-0.4-4-1.3L1,23.4c-0.3-0.2-0.4-0.5-0.4-0.8V3.1c0-0.3,0.2-0.6,0.4-0.8c0.2-0.1,0.4-0.1,0.5-0.1
	c0.2,0,0.3,0,0.5,0.1l10.9,7.2c0.8,0.6,1.9,0.9,3,0.9c1,0,2-0.3,2.8-0.8V9.5l0.2,0l10.9-7.1c0.1-0.1,0.3-0.1,0.5-0.1
	c0.2,0,0.4,0,0.5,0.1c0.3,0.2,0.4,0.4,0.5,0.7l0,0.1v19.6c0,0.3-0.2,0.6-0.4,0.8l-11,7.2l0,0c-0.3,0.2-0.6,0.3-0.9,0.5
	c0,0-0.1,0.1-0.2,0.1C17.9,31.7,16.9,31.8,15.9,31.8z M14.3,29.7c0.5,0.2,1.1,0.3,1.6,0.3c0.6,0,1.1-0.1,1.7-0.3V12.1
	c-0.5,0.1-1.1,0.2-1.6,0.2c-0.6,0-1.1-0.1-1.6-0.2V29.7z M12.4,28.7V11.4c-0.2-0.1-0.4-0.2-0.6-0.4L2.5,4.8v17.3L12.4,28.7z
	 M19.4,28.7l10-6.6V4.8L20,11c-0.1,0.1-0.2,0.1-0.3,0.2c-0.1,0-0.1,0.1-0.2,0.1V28.7z M10.7,21.6c-0.1,0-0.2-0.1-0.4-0.2l-6.7-4.2
	c-0.3-0.1-0.4-0.3-0.4-0.5c-0.1-0.3,0-0.5,0.1-0.7c0.2-0.3,0.5-0.4,0.8-0.4c0.2,0,0.3,0,0.5,0.1l6.7,4c0.3,0.2,0.4,0.4,0.4,0.7
	c0.1,0.1,0,0.4-0.1,0.6C11.3,21.4,11.1,21.6,10.7,21.6z M10.7,17.4c-0.1,0-0.2-0.1-0.4-0.2l-6.7-4.1c-0.2-0.1-0.4-0.3-0.4-0.5
	c-0.1-0.1,0-0.4,0.1-0.6c0.1-0.3,0.3-0.4,0.5-0.4c0.1,0,0.2,0,0.2,0c0.1,0,0.3,0,0.5,0.1l6.7,4.1c0.2,0.1,0.3,0.2,0.4,0.5
	c0.1,0.3,0,0.5-0.1,0.8C11.3,17.3,11.1,17.4,10.7,17.4z M15.9,10.2c-2.8,0-5.1-2.2-5.1-5c0-2.8,2.3-5.1,5.1-5.1c2.8,0,5.1,2.2,5.1,5
	C21,7.9,18.7,10.2,15.9,10.2z M15.9,2c-1.8,0-3.2,1.4-3.2,3.2s1.4,3.2,3.2,3.2c1.8,0,3.2-1.4,3.2-3.2S17.7,2,15.9,2z"/>
</svg>
