<!-- Generated by IcoMoon.io -->
<svg version="1.1" xmlns="http://www.w3.org/2000/svg" width="32" height="32" viewBox="0 0 32 32">
<title>Course-Rating</title>
<path d="M27.8 0.133h-23.6c-2.2 0-4.067 1.867-4.067 4.067v23.533c0 2.267 1.8 4.067 4.067 4.067h23.533c2.267 0 4.067-1.8 4.067-4.067v-23.533c0.067-2.2-1.8-4.067-4-4.067zM30.333 27.8c0 1.4-1.133 2.533-2.533 2.533h-23.6c-1.4 0-2.533-1.133-2.533-2.533v-23.6c0-1.4 1.133-2.533 2.533-2.533h23.533c1.4 0 2.533 1.133 2.533 2.533v23.6zM23.133 12.733l-4.067-0.6-1.8-3.733c-0.267-0.467-0.733-0.8-1.267-0.8s-1 0.267-1.267 0.8l-1.8 3.733-4.067 0.6c-0.533 0.067-0.933 0.467-1.133 0.933-0.133 0.533 0 1.067 0.333 1.4l2.933 2.867-0.667 4.067c-0.067 0.4 0.067 0.8 0.333 1.133 0.4 0.467 1.133 0.667 1.733 0.333l3.667-1.933 3.667 1.933c0.2 0.133 0.4 0.133 0.667 0.133 0.4 0 0.8-0.2 1.067-0.467 0.267-0.333 0.4-0.733 0.333-1.133l-0.667-4.067 2.933-2.867c0.4-0.4 0.533-0.933 0.333-1.4-0.267-0.467-0.733-0.867-1.267-0.933zM12.6 17.867c0.067-0.267-0.067-0.467-0.2-0.667l-3.067-3 4.2-0.6c0.267-0.067 0.467-0.2 0.6-0.4l1.867-3.867 1.867 3.8c0.133 0.2 0.333 0.4 0.6 0.4l4.2 0.6-3.067 3c-0.2 0.2-0.267 0.4-0.2 0.667l0.733 4.2-3.8-2c-0.2-0.133-0.467-0.133-0.733 0l-3.8 2 0.8-4.133z"></path>
</svg>
