<?xml version="1.0" encoding="utf-8"?>
<!-- Generator: Adobe Illustrator 23.0.4, SVG Export Plug-In . SVG Version: 6.00 Build 0)  -->
<svg version="1.1" id="Layer_1" xmlns="http://www.w3.org/2000/svg" xmlns:xlink="http://www.w3.org/1999/xlink" x="0px" y="0px"
	 viewBox="0 0 32 32" style="enable-background:new 0 0 32 32;" xml:space="preserve">
<title>Course-Rating</title>
<path d="M4.4,31.8c-2.4,0-4.3-1.9-4.3-4.3V4.4c0-2.3,1.9-4.3,4.3-4.3h23.3c1.1,0,2.2,0.5,3,1.3c0.8,0.8,1.2,1.9,1.2,3v23.2
	c0,2.4-1.9,4.3-4.3,4.3H4.4z M4.4,2.1c-1.2,0-2.3,1-2.3,2.3v23.3c0,1.2,1,2.3,2.3,2.3h23.3c1.2,0,2.1-0.9,2.2-2l-0.1-0.2V4.4
	c0-1.2-1-2.3-2.2-2.3H4.4z M11.8,23.8c-0.5,0-1-0.2-1.3-0.6c-0.3-0.4-0.5-0.9-0.4-1.3l0.6-3.9L8,15.3c-0.4-0.4-0.5-1-0.4-1.6
	c0.3-0.6,0.8-1,1.3-1.1l3.9-0.6l1.7-3.6c0.3-0.6,0.8-0.9,1.5-0.9c0.6,0,1.1,0.3,1.5,0.9l1.7,3.6l3.9,0.6c0.6,0.1,1.1,0.5,1.4,1
	c0.2,0.6,0.1,1.2-0.4,1.7L21.3,18l0.6,3.9c0.1,0.4-0.1,0.9-0.4,1.3c-0.4,0.4-0.8,0.6-1.2,0.6c-0.3,0-0.5,0-0.8-0.2l-3.5-1.8
	l-3.5,1.8C12.3,23.7,12.1,23.8,11.8,23.8z M16,19.6c0.2,0,0.3,0,0.5,0.1l3.3,1.7l-0.6-3.6c-0.1-0.3,0-0.6,0.3-0.9l2.7-2.6
	c0,0-3.6-0.5-3.7-0.5c-0.3,0-0.5-0.2-0.8-0.5L16,10l-1.6,3.4c-0.2,0.3-0.4,0.4-0.8,0.5L10,14.4l2.7,2.6c0.2,0.3,0.4,0.5,0.3,0.9
	l-0.7,3.6l3.3-1.7C15.7,19.6,15.8,19.6,16,19.6z"/>
</svg>
