<?xml version="1.0" encoding="utf-8"?>
<!-- Generator: Adobe Illustrator 23.0.4, SVG Export Plug-In . SVG Version: 6.00 Build 0)  -->
<svg version="1.1" id="Layer_1" xmlns="http://www.w3.org/2000/svg" xmlns:xlink="http://www.w3.org/1999/xlink" x="0px" y="0px"
	 viewBox="0 0 32 32" style="enable-background:new 0 0 32 32;" xml:space="preserve">
<title>Course-Curriculum</title>
<path d="M5.8,31.9c-2.3,0-4.1-1.9-4.1-4.1V4.4c0-2.3,1.9-4.1,4.1-4.1c0,0,20.3,0,20.3,0c1.1,0,2.2,0.4,3,1.2c0.8,0.8,1.2,1.8,1.2,3
	v23.3c0,2.3-1.9,4.1-4.1,4.1H5.8z M5.8,2.3c-1.2,0-2.1,1-2.1,2.1v23.4c0,1.2,1,2.1,2.1,2.1h20.3c1.2,0,2.1-1,2.1-2.1v-0.2h0.1V4.4
	c0-1.2-1-2.1-2.1-2.1H5.8z M13.6,22.6c-0.6,0-1-0.4-1-1c0-0.6,0.4-1,1-1H23c0.5,0,1,0.5,1,1c0,0.6-0.4,1-1,1H13.6z M7.9,22.6
	c-0.6,0-1-0.4-1-1c0-0.6,0.4-1,1-1h1.6c0.5,0,1,0.5,1,1c0,0.6-0.4,1-1,1H7.9z M13.6,16.4c-0.6,0-1-0.4-1-1s0.4-1,1-1H23
	c0.5,0,1,0.4,1,1c0,0.6-0.4,1-1,1H13.6z M7.9,16.4c-0.6,0-1-0.4-1-1s0.4-1,1-1h1.6c0.5,0,1,0.4,1,1c0,0.6-0.4,1-1,1H7.9z M13.6,10.1
	c-0.6,0-1-0.4-1-1s0.4-1,1-1H23c0.5,0,1,0.4,1,1c0,0.6-0.4,1-1,1H13.6z M7.9,10.1c-0.6,0-1-0.4-1-1s0.4-1,1-1h1.6c0.5,0,1,0.4,1,1
	c0,0.6-0.4,1-1,1H7.9z"/>
</svg>
