<!-- Generated by IcoMoon.io -->
<svg version="1.1" xmlns="http://www.w3.org/2000/svg" width="32" height="32" viewBox="0 0 32 32">
<title>Course-Curriculum</title>
<path d="M26.267 0.133h-20.533c-2.2 0-3.933 1.8-3.933 3.933v23.733c0 2.2 1.8 3.933 3.933 3.933h20.6c2.2 0 3.933-1.8 3.933-3.933v-23.667c0-2.2-1.8-4-4-4zM28.667 27.867c0 1.333-1.067 2.4-2.4 2.4h-20.533c-1.333 0-2.4-1.067-2.4-2.4v-23.733c0-1.333 1.067-2.4 2.4-2.4h20.6c1.333 0 2.4 1.067 2.4 2.4v23.733zM10.467 8.067h-1.6c-0.467 0-0.8 0.333-0.8 0.8s0.333 0.8 0.8 0.8h1.6c0.467 0 0.8-0.333 0.8-0.8s-0.4-0.8-0.8-0.8zM23.133 8.067h-9.533c-0.467 0-0.8 0.333-0.8 0.8s0.333 0.8 0.8 0.8h9.533c0.467 0 0.8-0.333 0.8-0.8s-0.4-0.8-0.8-0.8zM10.467 14.4h-1.6c-0.467 0-0.8 0.333-0.8 0.8s0.333 0.8 0.8 0.8h1.6c0.467 0 0.8-0.333 0.8-0.8s-0.4-0.8-0.8-0.8zM23.133 14.4h-9.533c-0.467 0-0.8 0.333-0.8 0.8s0.333 0.8 0.8 0.8h9.533c0.467 0 0.8-0.333 0.8-0.8s-0.4-0.8-0.8-0.8zM10.467 20.733h-1.6c-0.467 0-0.8 0.333-0.8 0.8s0.333 0.8 0.8 0.8h1.6c0.467 0 0.8-0.333 0.8-0.8 0-0.4-0.4-0.8-0.8-0.8zM23.133 20.733h-9.533c-0.467 0-0.8 0.333-0.8 0.8s0.333 0.8 0.8 0.8h9.533c0.467 0 0.8-0.333 0.8-0.8 0-0.4-0.4-0.8-0.8-0.8z"></path>
</svg>
