<?xml version="1.0" encoding="utf-8"?>
<!-- Generator: Adobe Illustrator 23.0.4, SVG Export Plug-In . SVG Version: 6.00 Build 0)  -->
<svg version="1.1" id="Layer_1" xmlns="http://www.w3.org/2000/svg" xmlns:xlink="http://www.w3.org/1999/xlink" x="0px" y="0px"
	 viewBox="0 0 32 32" style="enable-background:new 0 0 32 32;" xml:space="preserve">
<title>Course-Categories</title>
<path d="M25.3,32c-3.1,0-5.6-2.4-5.6-5.5c0-2.5,1.6-4.6,3.9-5.3v-2.6c0-0.6-0.5-1.1-1.1-1.1H9.4c-0.6,0-1.1,0.5-1.1,1.1v2.6
	c2.3,0.7,3.9,2.8,3.9,5.3c0,3.1-2.4,5.5-5.6,5.5s-5.6-2.4-5.6-5.5c0-2.5,1.6-4.6,3.9-5.3v-2.6c0-2.3,1.9-4.2,4.2-4.2h5v-3.7
	C12,10.1,10.4,8,10.4,5.5c0-3.1,2.4-5.5,5.6-5.5c3.1,0,5.6,2.4,5.6,5.5c0,2.5-1.6,4.6-3.9,5.3v3.7h5c2.3,0,4.2,1.9,4.2,4.2v2.6
	c2.3,0.7,4,2.8,4.1,5.2C30.8,29.6,28.4,32,25.3,32z M25.2,24.1c-1.3,0-2.4,1.1-2.4,2.4c0,1.3,1.1,2.4,2.4,2.4c1.3,0,2.4-1.1,2.4-2.4
	C27.6,25.2,26.5,24.1,25.2,24.1z M6.8,24.1c-1.3,0-2.4,1.1-2.4,2.4c0,1.3,1.1,2.4,2.4,2.4c1.3,0,2.4-1.1,2.4-2.4
	C9.2,25.2,8.1,24.1,6.8,24.1z M16,3.1c-1.3,0-2.4,1.1-2.4,2.4c0,1.3,1.1,2.4,2.4,2.4c1.3,0,2.4-1.1,2.4-2.4
	C18.4,4.2,17.3,3.1,16,3.1z"/>
</svg>
