<svg xmlns="http://www.w3.org/2000/svg" viewBox="0 0 28.87 30.87"><title>Asset 1</title><g id="Layer_2" data-name="Layer 2"><g id="Layer_1-2" data-name="Layer 1"><path d="M23.73,30.87a5,5,0,0,1-1.53-9.7l.4-.12V18a1.66,1.66,0,0,0-1.67-1.66H7.83A1.66,1.66,0,0,0,6.17,18v3l.4.12a4.94,4.94,0,0,1,3.5,4.76,4.88,4.88,0,0,1-5,4.94,4.87,4.87,0,0,1-5-4.94,4.94,4.94,0,0,1,3.5-4.76l.4-.12V18A3.64,3.64,0,0,1,7.53,14.4H13.1V9.71l-.41-.12A4.77,4.77,0,0,1,9.4,4.93a4.87,4.87,0,0,1,5-4.93A5,5,0,0,1,16,9.69l-.4.12V14.5h5.56a3.64,3.64,0,0,1,3.64,3.63v3l.4.13A5.23,5.23,0,0,1,28.87,26,5.17,5.17,0,0,1,23.73,30.87Zm-.1-7.9a3,3,0,1,0,3,3A3,3,0,0,0,23.63,23ZM5.23,23a3,3,0,0,0,0,5.93,3,3,0,1,0,0-5.93Zm9.2-21a3,3,0,0,0-3,3,3,3,0,1,0,5.93,0A3,3,0,0,0,14.43,2Z"/></g></g></svg>