<?xml version="1.0" encoding="utf-8"?>
<!-- Generator: Adobe Illustrator 23.0.4, SVG Export Plug-In . SVG Version: 6.00 Build 0)  -->
<svg version="1.1" id="Layer_1" xmlns="http://www.w3.org/2000/svg" xmlns:xlink="http://www.w3.org/1999/xlink" x="0px" y="0px"
	 viewBox="0 0 32 32" style="enable-background:new 0 0 32 32;" xml:space="preserve">
<title>Course-Target-Audience</title>
<path d="M15.9,31.7c-0.5,0-1-0.4-1-1v-0.4c-3.5-0.2-6.8-1.7-9.2-4.2c-2.5-2.5-3.9-5.8-4.2-9.2H1.2c-0.5,0-1-0.4-1-1s0.4-1,1-1h0.4
	c0.2-3.5,1.7-6.8,4.2-9.2c2.4-2.5,5.7-4,9.2-4.3V1.2c0-0.5,0.4-1,1-1c0.5,0,0.9,0.4,1,0.9l0,0.5c3.5,0.2,6.8,1.7,9.2,4.2
	c2.5,2.5,3.9,5.8,4.2,9.2h0.4c0.3,0,0.5,0.1,0.7,0.3c0.2,0.2,0.2,0.5,0.1,0.8c0,0.5-0.4,0.9-0.9,0.9h-0.4c-0.3,3.6-1.7,6.8-4.2,9.2
	c-2.5,2.5-5.8,3.9-9.2,4.2v0.3C16.9,31.3,16.5,31.7,15.9,31.7z M3.7,17c0.5,6.1,5.4,11,11.5,11.5v-1.5c0-0.5,0.4-1,1-1s1,0.4,1,1
	v1.5c6.1-0.5,11-5.4,11.5-11.5h-1.5c-0.5,0-1-0.4-1-1c0-0.5,0.4-0.9,0.8-1l1.6,0C27.9,8.9,23,4,16.9,3.5v1.6c0,0.5-0.4,1-1,1
	c-0.5,0-1-0.4-1-1V3.6C8.9,4.1,4,8.9,3.5,15h1.7c0.5,0,1,0.4,1,1s-0.4,1-1,1H3.7z M11.6,22.7c-0.9,0-1.6-0.8-1.6-1.7v-0.4
	c0-1.2,0.6-2.2,1.5-2.8c0.7-0.4,2.5-1.4,4.5-1.4c1.8,0,3.4,0.7,4.5,1.3c0.9,0.6,1.5,1.6,1.5,2.8V21c0,1-0.7,1.7-1.6,1.7H11.6z
	 M20.3,20.9v-0.2l0.1,0v-0.2c0-0.5-0.3-1-0.7-1.2c-1.3-0.8-2.5-1.1-3.6-1.1c-1.1,0-2.3,0.4-3.6,1.1c-0.4,0.2-0.7,0.7-0.7,1.2v0.3
	H20.3z M16,15.2c-1.9,0-3.5-1.6-3.5-3.5c0-1.9,1.5-3.5,3.5-3.5c1.9,0,3.5,1.6,3.5,3.5S17.9,15.2,16,15.2z M16,10.1
	c-0.9,0-1.7,0.8-1.7,1.7c0,0.9,0.8,1.7,1.7,1.7c0.9,0,1.7-0.8,1.7-1.7C17.7,10.8,16.9,10.1,16,10.1z"/>
</svg>
