<!-- Generated by IcoMoon.io -->
<svg version="1.1" xmlns="http://www.w3.org/2000/svg" width="32" height="32" viewBox="0 0 32 32">
<title>Course-Target-Audience</title>
<path d="M31.267 15.267h-0.6c-0.2-3.6-1.733-7-4.267-9.6-2.6-2.6-6-4.067-9.6-4.267v-0.667c-0.067-0.4-0.4-0.733-0.8-0.733s-0.733 0.333-0.733 0.733v0.6c-3.667 0.2-7.067 1.733-9.6 4.333-2.6 2.6-4.067 6-4.267 9.6h-0.667c-0.4 0-0.733 0.333-0.733 0.733s0.333 0.733 0.733 0.733h0.6c0.2 3.6 1.733 7 4.267 9.6 2.6 2.6 6 4.067 9.6 4.267v0.6c0 0.4 0.333 0.733 0.733 0.733s0.733-0.333 0.733-0.733v-0.533c3.6-0.2 7-1.733 9.6-4.267s4.067-6 4.267-9.6h0.6c0.4 0 0.733-0.333 0.733-0.733 0.133-0.467-0.2-0.8-0.6-0.8zM26.533 16c0 0.4 0.333 0.733 0.733 0.733h1.867c-0.4 6.667-5.667 11.933-12.333 12.333v-1.867c0-0.4-0.333-0.733-0.733-0.733s-0.733 0.333-0.733 0.733v1.867c-6.667-0.4-11.933-5.667-12.333-12.333h1.867c0.4 0 0.733-0.333 0.733-0.733s-0.333-0.733-0.733-0.733h-2c0.4-6.667 5.667-11.933 12.333-12.333v1.867c0 0.4 0.333 0.733 0.733 0.733s0.733-0.333 0.733-0.733v-1.933c6.667 0.4 11.933 5.667 12.333 12.333h-1.867c-0.267 0.067-0.6 0.4-0.6 0.8zM16 16c1.8 0 3.333-1.467 3.333-3.333 0-1.8-1.467-3.333-3.333-3.333s-3.333 1.467-3.333 3.333 1.533 3.333 3.333 3.333zM16 10.667c1.067 0 2 0.867 2 2 0 1.067-0.867 2-2 2-1.067 0-2-0.867-2-2 0-1.067 0.933-2 2-2zM20.533 18c-1.067-0.6-2.733-1.333-4.533-1.333s-3.467 0.733-4.533 1.4c-0.867 0.533-1.4 1.533-1.4 2.667v0.4c0 0.867 0.667 1.533 1.4 1.533h9.067c0.8 0 1.4-0.667 1.4-1.533v-0.467c0-1.133-0.533-2.133-1.4-2.667zM20.667 21.067c0 0.133-0.067 0.2-0.067 0.2h-9.133c0 0-0.067-0.067-0.067-0.2v-0.4c0-0.6 0.333-1.2 0.8-1.467 0.933-0.533 2.333-1.2 3.867-1.2s2.933 0.667 3.867 1.2c0.467 0.267 0.8 0.867 0.8 1.467v0.4z"></path>
</svg>
