<!-- Generated by IcoMoon.io -->
<svg version="1.1" xmlns="http://www.w3.org/2000/svg" width="32" height="32" viewBox="0 0 32 32">
<title>Course-Status</title>
<path d="M25.733 11.467l-5.067 5.067-4.2-2.8c-0.333-0.2-0.733-0.2-1 0.067l-5.8 5.8-3.4-3.4c-0.333-0.333-0.8-0.333-1.133 0s-0.333 0.8 0 1.133l3.933 3.933c0.133 0.133 0.333 0.2 0.533 0.2s0.4-0.067 0.533-0.2l5.867-5.867 4.2 2.8c0.333 0.2 0.733 0.2 1-0.067l5.533-5.533c0.333-0.333 0.333-0.8 0-1.133-0.2-0.267-0.667-0.267-1 0zM26.267 0.133h-20.533c-3.067 0-5.6 2.533-5.6 5.6v20.6c0 3.067 2.467 5.533 5.533 5.533h20.6c3.067 0 5.533-2.467 5.533-5.533v-20.6c0.067-3.067-2.467-5.6-5.533-5.6zM30.267 26.267c0 2.2-1.8 3.933-3.933 3.933h-20.6c-2.2 0-3.933-1.8-3.933-3.933v-20.533c0-2.2 1.8-3.933 3.933-3.933h20.6c2.2 0 3.933 1.8 3.933 3.933v20.533zM5.733 6.467h1.6c0.467 0 0.8-0.333 0.8-0.8s-0.333-0.8-0.8-0.8h-1.6c-0.467 0-0.8 0.333-0.8 0.8s0.333 0.8 0.8 0.8zM10.467 6.467h1.6c0.467 0 0.8-0.333 0.8-0.8s-0.333-0.8-0.8-0.8h-1.6c-0.467 0-0.8 0.333-0.8 0.8s0.333 0.8 0.8 0.8zM15.2 6.467h1.6c0.467 0 0.8-0.333 0.8-0.8s-0.333-0.8-0.8-0.8h-1.6c-0.467 0-0.8 0.333-0.8 0.8s0.4 0.8 0.8 0.8z"></path>
</svg>
