<?xml version="1.0" encoding="utf-8"?>
<!-- Generator: Adobe Illustrator 23.0.4, SVG Export Plug-In . SVG Version: 6.00 Build 0)  -->
<svg version="1.1" id="Layer_1" xmlns="http://www.w3.org/2000/svg" xmlns:xlink="http://www.w3.org/1999/xlink" x="0px" y="0px"
	 viewBox="0 0 32 32" style="enable-background:new 0 0 32 32;" xml:space="preserve">
<title>Course-Status</title>
<path d="M5.8,31.8c-3.1,0-5.7-2.6-5.7-5.7V5.9c0-3.2,2.6-5.8,5.8-5.8h20.2c1.5,0,3,0.6,4.1,1.7c1.1,1.1,1.6,2.5,1.6,4v20.2
	c0,3.1-2.6,5.7-5.7,5.7H5.8z M5.9,2.3c-2,0-3.6,1.6-3.6,3.6v20.2c0,2,1.6,3.6,3.6,3.6h20.3c2,0,3.6-1.6,3.6-3.6V5.9
	c0-2-1.6-3.6-3.6-3.6H5.9z M9.7,21.6c-0.3,0-0.5-0.1-0.7-0.3l-3.9-3.9c-0.4-0.4-0.4-1,0-1.5c0.2-0.2,0.5-0.3,0.7-0.3
	c0.3,0,0.5,0.1,0.7,0.3l3.2,3.2l5.5-5.5c0.2-0.2,0.4-0.3,0.7-0.3c0.2,0,0.4,0.1,0.6,0.2l4,2.6l4.8-4.8c0.2-0.2,0.5-0.3,0.7-0.3
	c0.3,0,0.5,0.1,0.6,0.3c0.4,0.4,0.4,1,0,1.4l-5.4,5.4c-0.2,0.2-0.4,0.3-0.7,0.3c-0.2,0-0.4-0.1-0.6-0.2l-4-2.6l-5.6,5.6
	C10.2,21.5,10,21.6,9.7,21.6z M15.2,6.9c-0.5,0-1-0.4-1-1c0-0.6,0.4-1,1-1h1.6c0.6,0,1,0.4,1,1s-0.4,1-1,1H15.2z M10.6,6.9
	c-0.6,0-1-0.4-1-1s0.4-1,1-1h1.6c0.6,0,1,0.4,1,1s-0.4,1-1,1H10.6z M5.9,6.9c-0.6,0-1-0.4-1-1s0.4-1,1-1h1.6c0.6,0,1,0.4,1,1
	s-0.4,1-1,1H5.9z"/>
</svg>
