<?xml version="1.0" encoding="utf-8"?>
<!-- Generator: Adobe Illustrator 23.0.4, SVG Export Plug-In . SVG Version: 6.00 Build 0)  -->
<svg version="1.1" id="Layer_1" xmlns="http://www.w3.org/2000/svg" xmlns:xlink="http://www.w3.org/1999/xlink" x="0px" y="0px"
	 viewBox="0 0 32 32" style="enable-background:new 0 0 32 32;" xml:space="preserve">
<style type="text/css">
	.st0{fill:#010101;}
</style>
<path class="st0" d="M7.7,31.8c-0.5,0-0.9-0.2-1.2-0.5C6.3,31,6.1,30.5,6.1,30V2c0-0.5,0.1-1,0.4-1.3c0.3-0.3,0.7-0.5,1.2-0.5h16.4
	c0.5,0,0.9,0.1,1.2,0.5C25.6,1,25.8,1.5,25.8,2v28c0,0.5-0.1,1-0.4,1.3c-0.3,0.3-0.7,0.5-1.2,0.5H7.7z M23.9,29.8V2.2H8v27.5H23.9z"
	/>
<path d="M3.8,18.9c-0.1,0-0.3-0.1-0.4-0.2l-3.1-3.4c-0.2-0.2-0.2-0.5,0-0.7l3.1-3.4c0.1-0.1,0.2-0.2,0.4-0.2s0.3,0.1,0.4,0.2L4.9,12
	c0.2,0.2,0.2,0.5,0,0.7l-2,2.2l2,2.3c0.2,0.2,0.2,0.5,0,0.7l-0.7,0.8C4.1,18.8,4,18.9,3.8,18.9z"/>
<path d="M4,11.4l0.7,0.8c0.1,0.1,0.1,0.3,0,0.4l-2.1,2.2c-0.1,0.1-0.1,0.3,0,0.4l2.1,2.2c0.1,0.1,0.1,0.3,0,0.4L4,18.6
	c-0.1,0.1-0.3,0.1-0.4,0l-3.1-3.4c-0.1-0.1-0.1-0.3,0-0.4l3.1-3.4C3.7,11.3,3.9,11.3,4,11.4z"/>
<path d="M28.2,18.9c-0.2,0-0.3-0.1-0.4-0.2L27.1,18c-0.2-0.2-0.2-0.6,0-0.8l2-2.2c0,0,0-0.1,0-0.1l-2-2.2c-0.2-0.2-0.2-0.6,0-0.8
	l0.6-0.7c0.1-0.1,0.3-0.2,0.4-0.2s0.3,0.1,0.4,0.2l3.1,3.3c0.2,0.2,0.2,0.6,0,0.8l-3.1,3.3C28.5,18.8,28.4,18.9,28.2,18.9z"/>
<path d="M28,18.5l-0.6-0.7c-0.1-0.1-0.1-0.3,0-0.4l2-2.2c0.1-0.1,0.1-0.3,0-0.4l-2-2.2c-0.1-0.1-0.1-0.3,0-0.4l0.6-0.7
	c0.1-0.1,0.4-0.1,0.5,0l3.1,3.3c0.1,0.1,0.1,0.3,0,0.4l-3.1,3.3C28.3,18.7,28.1,18.7,28,18.5z"/>
</svg>
