<?xml version="1.0" encoding="utf-8"?>
<!-- Generator: Adobe Illustrator 24.0.1, SVG Export Plug-In . SVG Version: 6.00 Build 0)  -->
<svg version="1.0" id="Layer_1" xmlns="http://www.w3.org/2000/svg" xmlns:xlink="http://www.w3.org/1999/xlink" x="0px" y="0px"
	 width="32" height="32" viewBox="0 0 32 32" style="enable-background:new 0 0 32 32;" xml:space="preserve">
<style type="text/css">
	.st0{fill:#010101;}
</style>
<g>
	<path class="st0" d="M3.1,16.5c0.1,0.2,0.3,0.3,0.4,0.5c0.1,0.2,0.3,0.3,0.4,0.5c0.1,0.1,0.1,0.2,0.2,0.3c0,0.1,0.1,0.2,0.1,0.3
		c0,0.1,0,0.2-0.1,0.3c0,0.1-0.1,0.2-0.2,0.2c-0.1,0.1-0.1,0.1-0.2,0.2c-0.1,0-0.2,0.1-0.3,0.1c-0.1,0-0.2,0-0.3-0.1
		c-0.1,0-0.2-0.1-0.2-0.2c-0.1,0-0.1-0.1-0.2-0.2c0-0.1-0.1-0.1-0.1-0.2c-0.2-0.2-0.5-0.5-0.7-0.8c-0.2-0.3-0.5-0.5-0.7-0.8
		c-0.1-0.2-0.3-0.3-0.4-0.5c-0.1-0.2-0.3-0.3-0.4-0.5c-0.1-0.1-0.1-0.2-0.2-0.3C0,15.3,0,15.2,0,15.1c0-0.1,0-0.2,0.1-0.3
		c0-0.1,0.1-0.2,0.2-0.3c0-0.1,0.1-0.1,0.1-0.2c0-0.1,0.1-0.1,0.2-0.2c0.2-0.3,0.5-0.6,0.7-0.9s0.5-0.6,0.7-0.8
		c0.1-0.2,0.3-0.4,0.4-0.6s0.3-0.4,0.4-0.6c0.1-0.1,0.1-0.1,0.2-0.2c0.1,0,0.2,0,0.3,0c0.1,0,0.2,0,0.3,0.1c0.1,0,0.2,0.1,0.3,0.2
		c0.1,0.1,0.1,0.2,0.2,0.3c0,0.1,0.1,0.2,0.1,0.3c0,0.1,0,0.1,0,0.2c0,0,0,0.1,0,0.2c0,0,0,0.1-0.1,0.1S4,12.4,4,12.5
		c-0.1,0.1-0.1,0.1-0.2,0.2c0,0.1-0.1,0.1-0.2,0.2c-0.2,0.3-0.5,0.6-0.7,0.9c-0.2,0.3-0.5,0.6-0.7,0.8c-0.1,0.1-0.1,0.2-0.2,0.2
		c-0.1,0.1-0.1,0.2-0.2,0.2c0.2,0.2,0.4,0.5,0.6,0.7C2.6,16,2.9,16.2,3.1,16.5z M25.9,0.9c0.3,0.3,0.4,0.7,0.4,1.1v28
		c0,0.4-0.1,0.8-0.4,1.1c-0.3,0.3-0.7,0.4-1.1,0.4H7.1c-0.4,0-0.8-0.1-1.1-0.4c-0.3-0.3-0.4-0.7-0.4-1.1V2c0-0.4,0.1-0.8,0.4-1.1
		c0.3-0.3,0.7-0.4,1.1-0.4h17.7C25.3,0.5,25.6,0.6,25.9,0.9z M7.1,30h17.7V2H7.1V30z M31.8,14.3c0.1,0.1,0.1,0.2,0.2,0.3
		c0,0.1,0.1,0.2,0.1,0.3c0,0.1,0,0.2-0.1,0.3c0,0.1-0.1,0.2-0.2,0.2c-0.1,0.1-0.1,0.1-0.2,0.2c0,0.1-0.1,0.1-0.2,0.2
		c-0.2,0.3-0.5,0.6-0.7,0.8s-0.5,0.6-0.7,0.9c-0.1,0.2-0.3,0.4-0.4,0.6c-0.1,0.2-0.3,0.4-0.4,0.5c-0.1,0.1-0.1,0.1-0.2,0.2
		s-0.2,0.1-0.3,0.1c-0.1,0-0.2,0-0.3-0.1c-0.1,0-0.2-0.1-0.2-0.2c-0.1-0.1-0.1-0.1-0.2-0.2c0-0.1-0.1-0.2-0.1-0.3c0-0.1,0-0.1,0-0.2
		c0,0,0-0.1,0.1-0.1c0,0,0-0.1,0-0.1c0,0,0.1-0.1,0.1-0.1c0-0.1,0.1-0.1,0.1-0.2s0.1-0.1,0.2-0.2c0.2-0.3,0.5-0.6,0.7-0.9
		c0.2-0.3,0.5-0.6,0.7-0.9c0.1-0.1,0.2-0.2,0.2-0.2c0.1-0.1,0.1-0.1,0.2-0.2c-0.2-0.2-0.4-0.5-0.6-0.7c-0.2-0.2-0.4-0.5-0.6-0.7
		c-0.1-0.1-0.3-0.3-0.4-0.5c-0.1-0.2-0.3-0.3-0.4-0.5c-0.1-0.1-0.1-0.1-0.2-0.2c0-0.1-0.1-0.2-0.1-0.3c0-0.1,0-0.2,0.1-0.3
		c0-0.1,0.1-0.2,0.2-0.3c0.1-0.1,0.2-0.1,0.3-0.2c0.1,0,0.2-0.1,0.3-0.1s0.2,0,0.3,0.1c0.1,0,0.2,0.1,0.3,0.2c0,0.1,0.1,0.1,0.1,0.2
		c0,0.1,0.1,0.1,0.2,0.2c0.2,0.2,0.5,0.5,0.7,0.8c0.2,0.3,0.5,0.5,0.7,0.8c0.1,0.2,0.3,0.3,0.4,0.5C31.5,13.9,31.6,14.1,31.8,14.3z"
		/>
</g>
</svg>
