<?xml version="1.0" encoding="utf-8"?>
<!-- Generator: Adobe Illustrator 23.0.4, SVG Export Plug-In . SVG Version: 6.00 Build 0)  -->
<svg version="1.1" id="Layer_1" xmlns="http://www.w3.org/2000/svg" xmlns:xlink="http://www.w3.org/1999/xlink" x="0px" y="0px"
	 viewBox="0 0 32 32" style="enable-background:new 0 0 32 32;" xml:space="preserve">
<title>Course-Materials</title>
<path d="M6.9,31.8c-1.5,0-2.8-0.6-4-1.7c-1-1.1-1.6-2.6-1.6-4.1c0-1.6,0.6-3,1.6-4.1L20.8,4.2c0.5-0.5,1-0.8,1.5-1
	c0.4-0.2,1-0.3,1.6-0.3c0.5,0,1,0.1,1.6,0.3c0.5,0.2,1,0.5,1.4,1c0.8,0.9,1.2,2,1.2,3.2c0,1.2-0.5,2.3-1.3,3.1l-9,8.8
	c-0.3,0.2-0.5,0.3-0.8,0.3c-0.3,0-0.6-0.2-0.7-0.3c-0.4-0.4-0.4-1,0-1.5l9-8.9c0.5-0.4,0.7-1,0.7-1.6c0-0.6-0.2-1.2-0.7-1.7
	c-0.2-0.2-0.4-0.4-0.7-0.5C24.5,5.1,24.2,5,23.9,5c-0.3,0-0.6,0.1-0.9,0.2c-0.3,0.1-0.5,0.2-0.8,0.5L4.4,23.5c-0.7,0.7-1,1.6-1,2.6
	c0,1,0.4,1.9,1,2.6c0.6,0.7,1.5,1,2.5,1c0.9,0,1.8-0.4,2.5-1l17.8-17.6c1-1,1.5-2.2,1.5-3.5c0-1.3-0.5-2.6-1.4-3.5
	c-0.9-1-2.1-1.5-3.4-1.5c-0.1,0-0.1,0-0.2,0c-1.2,0-2.4,0.5-3.2,1.4l-8.9,8.8c-0.3,0.2-0.5,0.3-0.8,0.3c-0.3,0-0.6-0.2-0.7-0.3
	c-0.2-0.2-0.3-0.5-0.3-0.7s0.1-0.5,0.3-0.7L19,2.3c1.3-1.3,3-2,4.7-2l0.2,0c1.8,0,3.5,0.8,4.9,2.2c1.3,1.4,2,3.1,1.9,5.1
	c0,1.9-0.7,3.6-2.1,4.9L10.8,30.1C9.8,31.2,8.4,31.8,6.9,31.8z"/>
</svg>
