<!-- Generated by IcoMoon.io -->
<svg version="1.1" xmlns="http://www.w3.org/2000/svg" width="32" height="32" viewBox="0 0 32 32">
<title>Course-Materials</title>
<path d="M28.933 2.333c-1.267-1.333-2.933-2.133-4.8-2.133-1.8-0.067-3.533 0.667-4.867 1.933l-9.133 9c-0.333 0.333-0.333 0.8 0 1.133 0.133 0.133 0.333 0.267 0.533 0.267s0.4-0.067 0.6-0.2l9.133-9.067c1-1 2.4-1.533 3.733-1.467 1.4 0 2.667 0.6 3.667 1.667 0.933 1 1.467 2.4 1.467 3.8s-0.6 2.733-1.6 3.733l-18.267 18.067c-0.733 0.733-1.733 1.133-2.733 1.133 0 0 0 0 0 0-1.067 0-2.067-0.4-2.733-1.133-0.733-0.733-1.133-1.733-1.133-2.8s0.4-2.067 1.133-2.8l18.333-18.267c0.267-0.267 0.533-0.467 0.867-0.533 0.267-0.133 0.6-0.2 1-0.2 0 0 0 0 0 0 0.333 0 0.667 0.067 1 0.2s0.6 0.333 0.8 0.6c0.467 0.533 0.733 1.2 0.733 1.867 0 0.733-0.267 1.4-0.8 1.867l-9.2 9.067c-0.333 0.333-0.333 0.8 0 1.133 0.133 0.133 0.333 0.267 0.533 0.267s0.4-0.067 0.6-0.2l9.2-9.067c0.8-0.8 1.267-1.867 1.267-3s-0.4-2.2-1.133-3.067c-0.4-0.4-0.867-0.733-1.333-0.933-0.533-0.2-1.067-0.333-1.6-0.333-0.6 0-1.133 0.067-1.6 0.267-0.6 0.2-1.067 0.533-1.467 0.933l-18.333 18.2c-1.067 1.067-1.6 2.467-1.6 4 0 1.467 0.6 2.933 1.6 4 1.067 1.067 2.4 1.667 3.867 1.667s2.867-0.6 3.867-1.667l18.2-18.067c1.333-1.267 2.067-3 2.067-4.867 0.067-1.933-0.6-3.667-1.867-5z"></path>
</svg>
