<?xml version="1.0" encoding="utf-8"?>
<!-- Generator: Adobe Illustrator 23.0.4, SVG Export Plug-In . SVG Version: 6.00 Build 0)  -->
<svg version="1.1" id="Layer_1" xmlns="http://www.w3.org/2000/svg" xmlns:xlink="http://www.w3.org/1999/xlink" x="0px" y="0px"
	 viewBox="0 0 32 32" style="enable-background:new 0 0 32 32;" xml:space="preserve">
<title>Course-Price</title>
<path d="M16,31.8C7.3,31.8,0.2,24.7,0.2,16C0.2,7.3,7.3,0.2,16,0.2c8.7,0,15.8,7.1,15.8,15.8C31.8,24.7,24.7,31.8,16,31.8z M16,2.4
	C8.5,2.4,2.4,8.5,2.4,16c0,7.5,6.1,13.6,13.6,13.6c7.5,0,13.6-6.1,13.6-13.6C29.6,8.5,23.5,2.4,16,2.4z M16,25
	c-0.4,0-0.9-0.3-0.9-0.9v-0.5c-2.3-0.4-4-2.2-4-4.2c0-0.5,0.4-0.9,0.9-0.9c0.4,0,0.9,0.3,0.9,0.9c0,1.1,0.9,2,2.2,2.3v-4.8
	c-2.3-0.4-4-2.2-4-4.2c0-2.1,1.7-3.8,4-4.2V8c0-0.5,0.4-0.9,0.9-0.9c0.4,0,0.9,0.3,0.9,0.9v0.5c2.3,0.4,4,2.2,4,4.2
	c0,0.5-0.4,0.9-0.9,0.9c-0.4,0-0.9-0.3-0.9-0.9c0-1.1-0.9-2-2.2-2.4v4.8c2.3,0.4,4,2.2,4,4.2c0,2.1-1.7,3.8-4,4.2v0.5
	C16.9,24.5,16.5,25,16,25z M16.9,21.6c1.3-0.3,2.2-1.2,2.2-2.3c0-1.1-0.9-2-2.2-2.3V21.6z M12.9,12.7c0,1.1,0.9,2,2.2,2.3v-4.6
	C13.8,10.7,12.9,11.6,12.9,12.7L12.9,12.7z"/>
</svg>
