<!-- Generated by IcoMoon.io -->
<svg version="1.1" xmlns="http://www.w3.org/2000/svg" width="32" height="32" viewBox="0 0 32 32">
<title>Course-Tags</title>
<path d="M28.2 0.4h-8.133c-1.6 0-3.067 0.6-4.2 1.733l-14.333 14.333c-0.733 0.733-1.133 1.733-1.133 2.8s0.4 2 1.133 2.733l8.467 8.467c0.733 0.733 1.733 1.133 2.8 1.133s2-0.4 2.733-1.133l14.333-14.333c1.133-1.133 1.733-2.6 1.733-4.2v-8.133c0-1.867-1.533-3.4-3.4-3.4zM30 3.8v8.133c0 1.133-0.467 2.267-1.267 3.067l-14.333 14.333c-0.867 0.867-2.4 0.867-3.267 0l-8.467-8.467c-0.467-0.4-0.667-1-0.667-1.6s0.267-1.2 0.667-1.6l14.333-14.4c0.8-0.8 1.933-1.267 3.067-1.267h8.133c1 0 1.8 0.8 1.8 1.8zM24.2 4.533c-1.8 0-3.267 1.467-3.267 3.267s1.467 3.267 3.267 3.267c1.8 0 3.267-1.467 3.267-3.267s-1.467-3.267-3.267-3.267zM24.2 9.733c-1.067 0-2-0.867-2-2 0-1.067 0.867-2 2-2 1.067 0 2 0.867 2 2s-0.933 2-2 2z"></path>
</svg>
