<?xml version="1.0" encoding="utf-8"?>
<!-- Generator: Adobe Illustrator 23.0.4, SVG Export Plug-In . SVG Version: 6.00 Build 0)  -->
<svg version="1.1" id="Layer_1" xmlns="http://www.w3.org/2000/svg" xmlns:xlink="http://www.w3.org/1999/xlink" x="0px" y="0px"
	 viewBox="0 0 32 32" style="enable-background:new 0 0 32 32;" xml:space="preserve">
<title>Course-Tags</title>
<path d="M12.9,31.5c-1.1,0-2.2-0.4-2.9-1.2l-8.3-8.3c-0.8-0.8-1.2-1.8-1.2-2.9c0-1.1,0.4-2.2,1.2-2.9l14-14c1.2-1.2,2.6-1.8,4.3-1.8
	h8c2,0,3.6,1.6,3.6,3.6v8c0,1.6-0.6,3.1-1.8,4.3l-14,14C14.9,31.1,14,31.5,12.9,31.5z M20,2.5c-1,0-2.1,0.4-2.8,1.2l-14,14.1
	c-0.4,0.4-0.6,0.9-0.6,1.4c0,0.6,0.2,1.1,0.6,1.4l8.3,8.3c0.4,0.4,0.9,0.6,1.4,0.6c0.5,0,1.1-0.2,1.4-0.6l14-14
	c0.7-0.7,1.2-1.8,1.2-2.8V4c0-0.9-0.7-1.5-1.5-1.5H20z M24,11.4c-1.9,0-3.4-1.5-3.4-3.4c0-1.9,1.5-3.4,3.4-3.4
	c1.9,0,3.4,1.5,3.4,3.4C27.5,9.9,25.9,11.4,24,11.4z M24,6.2c-0.9,0-1.7,0.8-1.7,1.7s0.8,1.7,1.7,1.7c0.9,0,1.7-0.8,1.7-1.7
	S25,6.2,24,6.2z"/>
</svg>
